%TF.GenerationSoftware,KiCad,Pcbnew,10.0.1*%
%TF.CreationDate,2026-05-10T15:10:35-04:00*%
%TF.ProjectId,Hall_effect_sensor_board_A139x,48616c6c-5f65-4666-9665-63745f73656e,rev?*%
%TF.SameCoordinates,Original*%
%TF.FileFunction,Legend,Top*%
%TF.FilePolarity,Positive*%
%FSLAX46Y46*%
G04 Gerber Fmt 4.6, Leading zero omitted, Abs format (unit mm)*
G04 Created by KiCad (PCBNEW 10.0.1) date 2026-05-10 15:10:35*
%MOMM*%
%LPD*%
G01*
G04 APERTURE LIST*
%ADD10C,0.127000*%
%ADD11C,0.120000*%
%ADD12C,0.200000*%
G04 APERTURE END LIST*
D10*
X29795197Y-185080571D02*
X29758911Y-185153143D01*
X29758911Y-185153143D02*
X29758911Y-185262000D01*
X29758911Y-185262000D02*
X29795197Y-185370857D01*
X29795197Y-185370857D02*
X29867768Y-185443428D01*
X29867768Y-185443428D02*
X29940340Y-185479714D01*
X29940340Y-185479714D02*
X30085483Y-185516000D01*
X30085483Y-185516000D02*
X30194340Y-185516000D01*
X30194340Y-185516000D02*
X30339483Y-185479714D01*
X30339483Y-185479714D02*
X30412054Y-185443428D01*
X30412054Y-185443428D02*
X30484626Y-185370857D01*
X30484626Y-185370857D02*
X30520911Y-185262000D01*
X30520911Y-185262000D02*
X30520911Y-185189428D01*
X30520911Y-185189428D02*
X30484626Y-185080571D01*
X30484626Y-185080571D02*
X30448340Y-185044285D01*
X30448340Y-185044285D02*
X30194340Y-185044285D01*
X30194340Y-185044285D02*
X30194340Y-185189428D01*
X30520911Y-184717714D02*
X29758911Y-184717714D01*
X29758911Y-184717714D02*
X30520911Y-184282285D01*
X30520911Y-184282285D02*
X29758911Y-184282285D01*
X30520911Y-183919428D02*
X29758911Y-183919428D01*
X29758911Y-183919428D02*
X29758911Y-183737999D01*
X29758911Y-183737999D02*
X29795197Y-183629142D01*
X29795197Y-183629142D02*
X29867768Y-183556571D01*
X29867768Y-183556571D02*
X29940340Y-183520285D01*
X29940340Y-183520285D02*
X30085483Y-183483999D01*
X30085483Y-183483999D02*
X30194340Y-183483999D01*
X30194340Y-183483999D02*
X30339483Y-183520285D01*
X30339483Y-183520285D02*
X30412054Y-183556571D01*
X30412054Y-183556571D02*
X30484626Y-183629142D01*
X30484626Y-183629142D02*
X30520911Y-183737999D01*
X30520911Y-183737999D02*
X30520911Y-183919428D01*
X24783911Y-185490999D02*
X25545911Y-185236999D01*
X25545911Y-185236999D02*
X24783911Y-184982999D01*
X25473340Y-184293570D02*
X25509626Y-184329856D01*
X25509626Y-184329856D02*
X25545911Y-184438713D01*
X25545911Y-184438713D02*
X25545911Y-184511285D01*
X25545911Y-184511285D02*
X25509626Y-184620142D01*
X25509626Y-184620142D02*
X25437054Y-184692713D01*
X25437054Y-184692713D02*
X25364483Y-184728999D01*
X25364483Y-184728999D02*
X25219340Y-184765285D01*
X25219340Y-184765285D02*
X25110483Y-184765285D01*
X25110483Y-184765285D02*
X24965340Y-184728999D01*
X24965340Y-184728999D02*
X24892768Y-184692713D01*
X24892768Y-184692713D02*
X24820197Y-184620142D01*
X24820197Y-184620142D02*
X24783911Y-184511285D01*
X24783911Y-184511285D02*
X24783911Y-184438713D01*
X24783911Y-184438713D02*
X24820197Y-184329856D01*
X24820197Y-184329856D02*
X24856483Y-184293570D01*
X25473340Y-183531570D02*
X25509626Y-183567856D01*
X25509626Y-183567856D02*
X25545911Y-183676713D01*
X25545911Y-183676713D02*
X25545911Y-183749285D01*
X25545911Y-183749285D02*
X25509626Y-183858142D01*
X25509626Y-183858142D02*
X25437054Y-183930713D01*
X25437054Y-183930713D02*
X25364483Y-183966999D01*
X25364483Y-183966999D02*
X25219340Y-184003285D01*
X25219340Y-184003285D02*
X25110483Y-184003285D01*
X25110483Y-184003285D02*
X24965340Y-183966999D01*
X24965340Y-183966999D02*
X24892768Y-183930713D01*
X24892768Y-183930713D02*
X24820197Y-183858142D01*
X24820197Y-183858142D02*
X24783911Y-183749285D01*
X24783911Y-183749285D02*
X24783911Y-183676713D01*
X24783911Y-183676713D02*
X24820197Y-183567856D01*
X24820197Y-183567856D02*
X24856483Y-183531570D01*
X29811210Y-183053066D02*
X30522410Y-182816000D01*
X30522410Y-182816000D02*
X29811210Y-182578933D01*
X29811210Y-182206400D02*
X29811210Y-182070933D01*
X29811210Y-182070933D02*
X29845077Y-182003200D01*
X29845077Y-182003200D02*
X29912810Y-181935466D01*
X29912810Y-181935466D02*
X30048277Y-181901600D01*
X30048277Y-181901600D02*
X30285344Y-181901600D01*
X30285344Y-181901600D02*
X30420810Y-181935466D01*
X30420810Y-181935466D02*
X30488544Y-182003200D01*
X30488544Y-182003200D02*
X30522410Y-182070933D01*
X30522410Y-182070933D02*
X30522410Y-182206400D01*
X30522410Y-182206400D02*
X30488544Y-182274133D01*
X30488544Y-182274133D02*
X30420810Y-182341866D01*
X30420810Y-182341866D02*
X30285344Y-182375733D01*
X30285344Y-182375733D02*
X30048277Y-182375733D01*
X30048277Y-182375733D02*
X29912810Y-182341866D01*
X29912810Y-182341866D02*
X29845077Y-182274133D01*
X29845077Y-182274133D02*
X29811210Y-182206400D01*
X29811210Y-181596799D02*
X30386944Y-181596799D01*
X30386944Y-181596799D02*
X30454677Y-181562933D01*
X30454677Y-181562933D02*
X30488544Y-181529066D01*
X30488544Y-181529066D02*
X30522410Y-181461333D01*
X30522410Y-181461333D02*
X30522410Y-181325866D01*
X30522410Y-181325866D02*
X30488544Y-181258133D01*
X30488544Y-181258133D02*
X30454677Y-181224266D01*
X30454677Y-181224266D02*
X30386944Y-181190399D01*
X30386944Y-181190399D02*
X29811210Y-181190399D01*
X29811210Y-180953332D02*
X29811210Y-180546932D01*
X30522410Y-180750132D02*
X29811210Y-180750132D01*
X25534626Y-182932142D02*
X25570911Y-182823285D01*
X25570911Y-182823285D02*
X25570911Y-182641856D01*
X25570911Y-182641856D02*
X25534626Y-182569285D01*
X25534626Y-182569285D02*
X25498340Y-182532999D01*
X25498340Y-182532999D02*
X25425768Y-182496713D01*
X25425768Y-182496713D02*
X25353197Y-182496713D01*
X25353197Y-182496713D02*
X25280626Y-182532999D01*
X25280626Y-182532999D02*
X25244340Y-182569285D01*
X25244340Y-182569285D02*
X25208054Y-182641856D01*
X25208054Y-182641856D02*
X25171768Y-182786999D01*
X25171768Y-182786999D02*
X25135483Y-182859570D01*
X25135483Y-182859570D02*
X25099197Y-182895856D01*
X25099197Y-182895856D02*
X25026626Y-182932142D01*
X25026626Y-182932142D02*
X24954054Y-182932142D01*
X24954054Y-182932142D02*
X24881483Y-182895856D01*
X24881483Y-182895856D02*
X24845197Y-182859570D01*
X24845197Y-182859570D02*
X24808911Y-182786999D01*
X24808911Y-182786999D02*
X24808911Y-182605570D01*
X24808911Y-182605570D02*
X24845197Y-182496713D01*
X25570911Y-181807285D02*
X25570911Y-182170142D01*
X25570911Y-182170142D02*
X24808911Y-182170142D01*
X25570911Y-181553285D02*
X24808911Y-181553285D01*
X24808911Y-181553285D02*
X24808911Y-181262999D01*
X24808911Y-181262999D02*
X24845197Y-181190428D01*
X24845197Y-181190428D02*
X24881483Y-181154142D01*
X24881483Y-181154142D02*
X24954054Y-181117856D01*
X24954054Y-181117856D02*
X25062911Y-181117856D01*
X25062911Y-181117856D02*
X25135483Y-181154142D01*
X25135483Y-181154142D02*
X25171768Y-181190428D01*
X25171768Y-181190428D02*
X25208054Y-181262999D01*
X25208054Y-181262999D02*
X25208054Y-181553285D01*
X25422410Y-179568532D02*
X25083744Y-179805599D01*
X25422410Y-179974932D02*
X24711210Y-179974932D01*
X24711210Y-179974932D02*
X24711210Y-179703999D01*
X24711210Y-179703999D02*
X24745077Y-179636266D01*
X24745077Y-179636266D02*
X24778944Y-179602399D01*
X24778944Y-179602399D02*
X24846677Y-179568532D01*
X24846677Y-179568532D02*
X24948277Y-179568532D01*
X24948277Y-179568532D02*
X25016010Y-179602399D01*
X25016010Y-179602399D02*
X25049877Y-179636266D01*
X25049877Y-179636266D02*
X25083744Y-179703999D01*
X25083744Y-179703999D02*
X25083744Y-179974932D01*
X25422410Y-178891199D02*
X25422410Y-179297599D01*
X25422410Y-179094399D02*
X24711210Y-179094399D01*
X24711210Y-179094399D02*
X24812810Y-179162132D01*
X24812810Y-179162132D02*
X24880544Y-179229866D01*
X24880544Y-179229866D02*
X24914410Y-179297599D01*
X27528406Y-180092666D02*
X27528406Y-180382952D01*
X27528406Y-180237809D02*
X27020406Y-180237809D01*
X27020406Y-180237809D02*
X27092977Y-180286190D01*
X27092977Y-180286190D02*
X27141358Y-180334571D01*
X27141358Y-180334571D02*
X27165549Y-180382952D01*
X27020406Y-179778189D02*
X27020406Y-179729808D01*
X27020406Y-179729808D02*
X27044596Y-179681427D01*
X27044596Y-179681427D02*
X27068787Y-179657237D01*
X27068787Y-179657237D02*
X27117168Y-179633046D01*
X27117168Y-179633046D02*
X27213930Y-179608856D01*
X27213930Y-179608856D02*
X27334882Y-179608856D01*
X27334882Y-179608856D02*
X27431644Y-179633046D01*
X27431644Y-179633046D02*
X27480025Y-179657237D01*
X27480025Y-179657237D02*
X27504216Y-179681427D01*
X27504216Y-179681427D02*
X27528406Y-179729808D01*
X27528406Y-179729808D02*
X27528406Y-179778189D01*
X27528406Y-179778189D02*
X27504216Y-179826570D01*
X27504216Y-179826570D02*
X27480025Y-179850761D01*
X27480025Y-179850761D02*
X27431644Y-179874951D01*
X27431644Y-179874951D02*
X27334882Y-179899142D01*
X27334882Y-179899142D02*
X27213930Y-179899142D01*
X27213930Y-179899142D02*
X27117168Y-179874951D01*
X27117168Y-179874951D02*
X27068787Y-179850761D01*
X27068787Y-179850761D02*
X27044596Y-179826570D01*
X27044596Y-179826570D02*
X27020406Y-179778189D01*
X27528406Y-179391141D02*
X27020406Y-179391141D01*
X27334882Y-179342760D02*
X27528406Y-179197617D01*
X27189739Y-179197617D02*
X27383263Y-179391141D01*
X27528406Y-179004094D02*
X27528406Y-178883141D01*
X27528406Y-178883141D02*
X27431644Y-178883141D01*
X27431644Y-178883141D02*
X27407454Y-178931522D01*
X27407454Y-178931522D02*
X27359073Y-178979903D01*
X27359073Y-178979903D02*
X27286501Y-179004094D01*
X27286501Y-179004094D02*
X27165549Y-179004094D01*
X27165549Y-179004094D02*
X27092977Y-178979903D01*
X27092977Y-178979903D02*
X27044596Y-178931522D01*
X27044596Y-178931522D02*
X27020406Y-178858951D01*
X27020406Y-178858951D02*
X27020406Y-178762189D01*
X27020406Y-178762189D02*
X27044596Y-178689617D01*
X27044596Y-178689617D02*
X27092977Y-178641236D01*
X27092977Y-178641236D02*
X27165549Y-178617046D01*
X27165549Y-178617046D02*
X27286501Y-178617046D01*
X27286501Y-178617046D02*
X27359073Y-178641236D01*
X27359073Y-178641236D02*
X27407454Y-178689617D01*
X27407454Y-178689617D02*
X27431644Y-178737998D01*
X27431644Y-178737998D02*
X27528406Y-178737998D01*
X27528406Y-178737998D02*
X27528406Y-178617046D01*
X30579677Y-179518532D02*
X30613544Y-179552399D01*
X30613544Y-179552399D02*
X30647410Y-179653999D01*
X30647410Y-179653999D02*
X30647410Y-179721732D01*
X30647410Y-179721732D02*
X30613544Y-179823332D01*
X30613544Y-179823332D02*
X30545810Y-179891066D01*
X30545810Y-179891066D02*
X30478077Y-179924932D01*
X30478077Y-179924932D02*
X30342610Y-179958799D01*
X30342610Y-179958799D02*
X30241010Y-179958799D01*
X30241010Y-179958799D02*
X30105544Y-179924932D01*
X30105544Y-179924932D02*
X30037810Y-179891066D01*
X30037810Y-179891066D02*
X29970077Y-179823332D01*
X29970077Y-179823332D02*
X29936210Y-179721732D01*
X29936210Y-179721732D02*
X29936210Y-179653999D01*
X29936210Y-179653999D02*
X29970077Y-179552399D01*
X29970077Y-179552399D02*
X30003944Y-179518532D01*
X30647410Y-178841199D02*
X30647410Y-179247599D01*
X30647410Y-179044399D02*
X29936210Y-179044399D01*
X29936210Y-179044399D02*
X30037810Y-179112132D01*
X30037810Y-179112132D02*
X30105544Y-179179866D01*
X30105544Y-179179866D02*
X30139410Y-179247599D01*
X27745406Y-180320857D02*
X27745406Y-180272476D01*
X27745406Y-180272476D02*
X27769596Y-180224095D01*
X27769596Y-180224095D02*
X27793787Y-180199905D01*
X27793787Y-180199905D02*
X27842168Y-180175714D01*
X27842168Y-180175714D02*
X27938930Y-180151524D01*
X27938930Y-180151524D02*
X28059882Y-180151524D01*
X28059882Y-180151524D02*
X28156644Y-180175714D01*
X28156644Y-180175714D02*
X28205025Y-180199905D01*
X28205025Y-180199905D02*
X28229216Y-180224095D01*
X28229216Y-180224095D02*
X28253406Y-180272476D01*
X28253406Y-180272476D02*
X28253406Y-180320857D01*
X28253406Y-180320857D02*
X28229216Y-180369238D01*
X28229216Y-180369238D02*
X28205025Y-180393429D01*
X28205025Y-180393429D02*
X28156644Y-180417619D01*
X28156644Y-180417619D02*
X28059882Y-180441810D01*
X28059882Y-180441810D02*
X27938930Y-180441810D01*
X27938930Y-180441810D02*
X27842168Y-180417619D01*
X27842168Y-180417619D02*
X27793787Y-180393429D01*
X27793787Y-180393429D02*
X27769596Y-180369238D01*
X27769596Y-180369238D02*
X27745406Y-180320857D01*
X28205025Y-179933809D02*
X28229216Y-179909619D01*
X28229216Y-179909619D02*
X28253406Y-179933809D01*
X28253406Y-179933809D02*
X28229216Y-179958000D01*
X28229216Y-179958000D02*
X28205025Y-179933809D01*
X28205025Y-179933809D02*
X28253406Y-179933809D01*
X28253406Y-179425809D02*
X28253406Y-179716095D01*
X28253406Y-179570952D02*
X27745406Y-179570952D01*
X27745406Y-179570952D02*
X27817977Y-179619333D01*
X27817977Y-179619333D02*
X27866358Y-179667714D01*
X27866358Y-179667714D02*
X27890549Y-179716095D01*
X27914739Y-179208094D02*
X28422739Y-179208094D01*
X28180835Y-178966189D02*
X28229216Y-178941999D01*
X28229216Y-178941999D02*
X28253406Y-178893618D01*
X28180835Y-179208094D02*
X28229216Y-179183904D01*
X28229216Y-179183904D02*
X28253406Y-179135523D01*
X28253406Y-179135523D02*
X28253406Y-179038761D01*
X28253406Y-179038761D02*
X28229216Y-178990380D01*
X28229216Y-178990380D02*
X28180835Y-178966189D01*
X28180835Y-178966189D02*
X27914739Y-178966189D01*
X27987311Y-178506571D02*
X27987311Y-178675904D01*
X28253406Y-178675904D02*
X27745406Y-178675904D01*
X27745406Y-178675904D02*
X27745406Y-178433999D01*
%TO.C,R1*%
D11*
X25802500Y-179772258D02*
X25802500Y-179297742D01*
X26847500Y-179772258D02*
X26847500Y-179297742D01*
%TO.C,C1*%
X28565000Y-179675580D02*
X28565000Y-179394420D01*
X29585000Y-179675580D02*
X29585000Y-179394420D01*
%TO.C,U1*%
D10*
X29059000Y-177530000D02*
X26059000Y-177530000D01*
X26059000Y-175530000D02*
X29059000Y-175530000D01*
D12*
X29959000Y-177030000D02*
G75*
G02*
X29759000Y-177030000I-100000J0D01*
G01*
X29759000Y-177030000D02*
G75*
G02*
X29959000Y-177030000I100000J0D01*
G01*
%TD*%
M02*
