%TF.GenerationSoftware,KiCad,Pcbnew,10.0.1*%
%TF.CreationDate,2026-05-10T15:10:35-04:00*%
%TF.ProjectId,Hall_effect_sensor_board_A139x,48616c6c-5f65-4666-9665-63745f73656e,rev?*%
%TF.SameCoordinates,Original*%
%TF.FileFunction,Legend,Bot*%
%TF.FilePolarity,Positive*%
%FSLAX46Y46*%
G04 Gerber Fmt 4.6, Leading zero omitted, Abs format (unit mm)*
G04 Created by KiCad (PCBNEW 10.0.1) date 2026-05-10 15:10:35*
%MOMM*%
%LPD*%
G01*
G04 APERTURE LIST*
%ADD10C,0.127000*%
%ADD11C,0.203200*%
G04 APERTURE END LIST*
D10*
X30479802Y-185080571D02*
X30516088Y-185153143D01*
X30516088Y-185153143D02*
X30516088Y-185262000D01*
X30516088Y-185262000D02*
X30479802Y-185370857D01*
X30479802Y-185370857D02*
X30407231Y-185443428D01*
X30407231Y-185443428D02*
X30334659Y-185479714D01*
X30334659Y-185479714D02*
X30189516Y-185516000D01*
X30189516Y-185516000D02*
X30080659Y-185516000D01*
X30080659Y-185516000D02*
X29935516Y-185479714D01*
X29935516Y-185479714D02*
X29862945Y-185443428D01*
X29862945Y-185443428D02*
X29790374Y-185370857D01*
X29790374Y-185370857D02*
X29754088Y-185262000D01*
X29754088Y-185262000D02*
X29754088Y-185189428D01*
X29754088Y-185189428D02*
X29790374Y-185080571D01*
X29790374Y-185080571D02*
X29826659Y-185044285D01*
X29826659Y-185044285D02*
X30080659Y-185044285D01*
X30080659Y-185044285D02*
X30080659Y-185189428D01*
X29754088Y-184717714D02*
X30516088Y-184717714D01*
X30516088Y-184717714D02*
X29754088Y-184282285D01*
X29754088Y-184282285D02*
X30516088Y-184282285D01*
X29754088Y-183919428D02*
X30516088Y-183919428D01*
X30516088Y-183919428D02*
X30516088Y-183737999D01*
X30516088Y-183737999D02*
X30479802Y-183629142D01*
X30479802Y-183629142D02*
X30407231Y-183556571D01*
X30407231Y-183556571D02*
X30334659Y-183520285D01*
X30334659Y-183520285D02*
X30189516Y-183483999D01*
X30189516Y-183483999D02*
X30080659Y-183483999D01*
X30080659Y-183483999D02*
X29935516Y-183520285D01*
X29935516Y-183520285D02*
X29862945Y-183556571D01*
X29862945Y-183556571D02*
X29790374Y-183629142D01*
X29790374Y-183629142D02*
X29754088Y-183737999D01*
X29754088Y-183737999D02*
X29754088Y-183919428D01*
X25541088Y-185490999D02*
X24779088Y-185236999D01*
X24779088Y-185236999D02*
X25541088Y-184982999D01*
X24851659Y-184293570D02*
X24815374Y-184329856D01*
X24815374Y-184329856D02*
X24779088Y-184438713D01*
X24779088Y-184438713D02*
X24779088Y-184511285D01*
X24779088Y-184511285D02*
X24815374Y-184620142D01*
X24815374Y-184620142D02*
X24887945Y-184692713D01*
X24887945Y-184692713D02*
X24960516Y-184728999D01*
X24960516Y-184728999D02*
X25105659Y-184765285D01*
X25105659Y-184765285D02*
X25214516Y-184765285D01*
X25214516Y-184765285D02*
X25359659Y-184728999D01*
X25359659Y-184728999D02*
X25432231Y-184692713D01*
X25432231Y-184692713D02*
X25504802Y-184620142D01*
X25504802Y-184620142D02*
X25541088Y-184511285D01*
X25541088Y-184511285D02*
X25541088Y-184438713D01*
X25541088Y-184438713D02*
X25504802Y-184329856D01*
X25504802Y-184329856D02*
X25468516Y-184293570D01*
X24851659Y-183531570D02*
X24815374Y-183567856D01*
X24815374Y-183567856D02*
X24779088Y-183676713D01*
X24779088Y-183676713D02*
X24779088Y-183749285D01*
X24779088Y-183749285D02*
X24815374Y-183858142D01*
X24815374Y-183858142D02*
X24887945Y-183930713D01*
X24887945Y-183930713D02*
X24960516Y-183966999D01*
X24960516Y-183966999D02*
X25105659Y-184003285D01*
X25105659Y-184003285D02*
X25214516Y-184003285D01*
X25214516Y-184003285D02*
X25359659Y-183966999D01*
X25359659Y-183966999D02*
X25432231Y-183930713D01*
X25432231Y-183930713D02*
X25504802Y-183858142D01*
X25504802Y-183858142D02*
X25541088Y-183749285D01*
X25541088Y-183749285D02*
X25541088Y-183676713D01*
X25541088Y-183676713D02*
X25504802Y-183567856D01*
X25504802Y-183567856D02*
X25468516Y-183531570D01*
X24815374Y-182857142D02*
X24779088Y-182748285D01*
X24779088Y-182748285D02*
X24779088Y-182566856D01*
X24779088Y-182566856D02*
X24815374Y-182494285D01*
X24815374Y-182494285D02*
X24851659Y-182457999D01*
X24851659Y-182457999D02*
X24924231Y-182421713D01*
X24924231Y-182421713D02*
X24996802Y-182421713D01*
X24996802Y-182421713D02*
X25069374Y-182457999D01*
X25069374Y-182457999D02*
X25105659Y-182494285D01*
X25105659Y-182494285D02*
X25141945Y-182566856D01*
X25141945Y-182566856D02*
X25178231Y-182711999D01*
X25178231Y-182711999D02*
X25214516Y-182784570D01*
X25214516Y-182784570D02*
X25250802Y-182820856D01*
X25250802Y-182820856D02*
X25323374Y-182857142D01*
X25323374Y-182857142D02*
X25395945Y-182857142D01*
X25395945Y-182857142D02*
X25468516Y-182820856D01*
X25468516Y-182820856D02*
X25504802Y-182784570D01*
X25504802Y-182784570D02*
X25541088Y-182711999D01*
X25541088Y-182711999D02*
X25541088Y-182530570D01*
X25541088Y-182530570D02*
X25504802Y-182421713D01*
X24779088Y-181732285D02*
X24779088Y-182095142D01*
X24779088Y-182095142D02*
X25541088Y-182095142D01*
X24779088Y-181478285D02*
X25541088Y-181478285D01*
X25541088Y-181478285D02*
X25541088Y-181187999D01*
X25541088Y-181187999D02*
X25504802Y-181115428D01*
X25504802Y-181115428D02*
X25468516Y-181079142D01*
X25468516Y-181079142D02*
X25395945Y-181042856D01*
X25395945Y-181042856D02*
X25287088Y-181042856D01*
X25287088Y-181042856D02*
X25214516Y-181079142D01*
X25214516Y-181079142D02*
X25178231Y-181115428D01*
X25178231Y-181115428D02*
X25141945Y-181187999D01*
X25141945Y-181187999D02*
X25141945Y-181478285D01*
D11*
X28600675Y-176331887D02*
X28600675Y-175519087D01*
X28600675Y-175906135D02*
X28136218Y-175906135D01*
X28136218Y-176331887D02*
X28136218Y-175519087D01*
X27400827Y-176331887D02*
X27400827Y-175906135D01*
X27400827Y-175906135D02*
X27439532Y-175828725D01*
X27439532Y-175828725D02*
X27516941Y-175790021D01*
X27516941Y-175790021D02*
X27671760Y-175790021D01*
X27671760Y-175790021D02*
X27749170Y-175828725D01*
X27400827Y-176293183D02*
X27478236Y-176331887D01*
X27478236Y-176331887D02*
X27671760Y-176331887D01*
X27671760Y-176331887D02*
X27749170Y-176293183D01*
X27749170Y-176293183D02*
X27787874Y-176215773D01*
X27787874Y-176215773D02*
X27787874Y-176138363D01*
X27787874Y-176138363D02*
X27749170Y-176060954D01*
X27749170Y-176060954D02*
X27671760Y-176022249D01*
X27671760Y-176022249D02*
X27478236Y-176022249D01*
X27478236Y-176022249D02*
X27400827Y-175983544D01*
X26897665Y-176331887D02*
X26975075Y-176293183D01*
X26975075Y-176293183D02*
X27013780Y-176215773D01*
X27013780Y-176215773D02*
X27013780Y-175519087D01*
X26471913Y-176331887D02*
X26549323Y-176293183D01*
X26549323Y-176293183D02*
X26588028Y-176215773D01*
X26588028Y-176215773D02*
X26588028Y-175519087D01*
X29142542Y-177214697D02*
X28871608Y-177214697D01*
X28755494Y-177640449D02*
X29142542Y-177640449D01*
X29142542Y-177640449D02*
X29142542Y-176827649D01*
X29142542Y-176827649D02*
X28755494Y-176827649D01*
X28523266Y-177098583D02*
X28213628Y-177098583D01*
X28407152Y-177640449D02*
X28407152Y-176943764D01*
X28407152Y-176943764D02*
X28368447Y-176866354D01*
X28368447Y-176866354D02*
X28291037Y-176827649D01*
X28291037Y-176827649D02*
X28213628Y-176827649D01*
X28058809Y-177098583D02*
X27749171Y-177098583D01*
X27942695Y-177640449D02*
X27942695Y-176943764D01*
X27942695Y-176943764D02*
X27903990Y-176866354D01*
X27903990Y-176866354D02*
X27826580Y-176827649D01*
X27826580Y-176827649D02*
X27749171Y-176827649D01*
X27168600Y-177601745D02*
X27246009Y-177640449D01*
X27246009Y-177640449D02*
X27400828Y-177640449D01*
X27400828Y-177640449D02*
X27478238Y-177601745D01*
X27478238Y-177601745D02*
X27516942Y-177524335D01*
X27516942Y-177524335D02*
X27516942Y-177214697D01*
X27516942Y-177214697D02*
X27478238Y-177137287D01*
X27478238Y-177137287D02*
X27400828Y-177098583D01*
X27400828Y-177098583D02*
X27246009Y-177098583D01*
X27246009Y-177098583D02*
X27168600Y-177137287D01*
X27168600Y-177137287D02*
X27129895Y-177214697D01*
X27129895Y-177214697D02*
X27129895Y-177292106D01*
X27129895Y-177292106D02*
X27516942Y-177369516D01*
X26433209Y-177601745D02*
X26510618Y-177640449D01*
X26510618Y-177640449D02*
X26665437Y-177640449D01*
X26665437Y-177640449D02*
X26742847Y-177601745D01*
X26742847Y-177601745D02*
X26781552Y-177563040D01*
X26781552Y-177563040D02*
X26820256Y-177485630D01*
X26820256Y-177485630D02*
X26820256Y-177253402D01*
X26820256Y-177253402D02*
X26781552Y-177175992D01*
X26781552Y-177175992D02*
X26742847Y-177137287D01*
X26742847Y-177137287D02*
X26665437Y-177098583D01*
X26665437Y-177098583D02*
X26510618Y-177098583D01*
X26510618Y-177098583D02*
X26433209Y-177137287D01*
X26200980Y-177098583D02*
X25891342Y-177098583D01*
X26084866Y-176827649D02*
X26084866Y-177524335D01*
X26084866Y-177524335D02*
X26046161Y-177601745D01*
X26046161Y-177601745D02*
X25968751Y-177640449D01*
X25968751Y-177640449D02*
X25891342Y-177640449D01*
X29471532Y-178910307D02*
X29355418Y-178949011D01*
X29355418Y-178949011D02*
X29161894Y-178949011D01*
X29161894Y-178949011D02*
X29084485Y-178910307D01*
X29084485Y-178910307D02*
X29045780Y-178871602D01*
X29045780Y-178871602D02*
X29007075Y-178794192D01*
X29007075Y-178794192D02*
X29007075Y-178716783D01*
X29007075Y-178716783D02*
X29045780Y-178639373D01*
X29045780Y-178639373D02*
X29084485Y-178600668D01*
X29084485Y-178600668D02*
X29161894Y-178561964D01*
X29161894Y-178561964D02*
X29316713Y-178523259D01*
X29316713Y-178523259D02*
X29394123Y-178484554D01*
X29394123Y-178484554D02*
X29432828Y-178445849D01*
X29432828Y-178445849D02*
X29471532Y-178368440D01*
X29471532Y-178368440D02*
X29471532Y-178291030D01*
X29471532Y-178291030D02*
X29432828Y-178213621D01*
X29432828Y-178213621D02*
X29394123Y-178174916D01*
X29394123Y-178174916D02*
X29316713Y-178136211D01*
X29316713Y-178136211D02*
X29123190Y-178136211D01*
X29123190Y-178136211D02*
X29007075Y-178174916D01*
X28349095Y-178910307D02*
X28426504Y-178949011D01*
X28426504Y-178949011D02*
X28581323Y-178949011D01*
X28581323Y-178949011D02*
X28658733Y-178910307D01*
X28658733Y-178910307D02*
X28697437Y-178832897D01*
X28697437Y-178832897D02*
X28697437Y-178523259D01*
X28697437Y-178523259D02*
X28658733Y-178445849D01*
X28658733Y-178445849D02*
X28581323Y-178407145D01*
X28581323Y-178407145D02*
X28426504Y-178407145D01*
X28426504Y-178407145D02*
X28349095Y-178445849D01*
X28349095Y-178445849D02*
X28310390Y-178523259D01*
X28310390Y-178523259D02*
X28310390Y-178600668D01*
X28310390Y-178600668D02*
X28697437Y-178678078D01*
X27962047Y-178407145D02*
X27962047Y-178949011D01*
X27962047Y-178484554D02*
X27923342Y-178445849D01*
X27923342Y-178445849D02*
X27845932Y-178407145D01*
X27845932Y-178407145D02*
X27729818Y-178407145D01*
X27729818Y-178407145D02*
X27652409Y-178445849D01*
X27652409Y-178445849D02*
X27613704Y-178523259D01*
X27613704Y-178523259D02*
X27613704Y-178949011D01*
X27265361Y-178910307D02*
X27187952Y-178949011D01*
X27187952Y-178949011D02*
X27033133Y-178949011D01*
X27033133Y-178949011D02*
X26955723Y-178910307D01*
X26955723Y-178910307D02*
X26917019Y-178832897D01*
X26917019Y-178832897D02*
X26917019Y-178794192D01*
X26917019Y-178794192D02*
X26955723Y-178716783D01*
X26955723Y-178716783D02*
X27033133Y-178678078D01*
X27033133Y-178678078D02*
X27149247Y-178678078D01*
X27149247Y-178678078D02*
X27226657Y-178639373D01*
X27226657Y-178639373D02*
X27265361Y-178561964D01*
X27265361Y-178561964D02*
X27265361Y-178523259D01*
X27265361Y-178523259D02*
X27226657Y-178445849D01*
X27226657Y-178445849D02*
X27149247Y-178407145D01*
X27149247Y-178407145D02*
X27033133Y-178407145D01*
X27033133Y-178407145D02*
X26955723Y-178445849D01*
X26452561Y-178949011D02*
X26529971Y-178910307D01*
X26529971Y-178910307D02*
X26568676Y-178871602D01*
X26568676Y-178871602D02*
X26607380Y-178794192D01*
X26607380Y-178794192D02*
X26607380Y-178561964D01*
X26607380Y-178561964D02*
X26568676Y-178484554D01*
X26568676Y-178484554D02*
X26529971Y-178445849D01*
X26529971Y-178445849D02*
X26452561Y-178407145D01*
X26452561Y-178407145D02*
X26336447Y-178407145D01*
X26336447Y-178407145D02*
X26259038Y-178445849D01*
X26259038Y-178445849D02*
X26220333Y-178484554D01*
X26220333Y-178484554D02*
X26181628Y-178561964D01*
X26181628Y-178561964D02*
X26181628Y-178794192D01*
X26181628Y-178794192D02*
X26220333Y-178871602D01*
X26220333Y-178871602D02*
X26259038Y-178910307D01*
X26259038Y-178910307D02*
X26336447Y-178949011D01*
X26336447Y-178949011D02*
X26452561Y-178949011D01*
X25833286Y-178949011D02*
X25833286Y-178407145D01*
X25833286Y-178561964D02*
X25794581Y-178484554D01*
X25794581Y-178484554D02*
X25755876Y-178445849D01*
X25755876Y-178445849D02*
X25678467Y-178407145D01*
X25678467Y-178407145D02*
X25601057Y-178407145D01*
D10*
X30513789Y-182978066D02*
X29802589Y-182741000D01*
X29802589Y-182741000D02*
X30513789Y-182503933D01*
X30513789Y-182131400D02*
X30513789Y-181995933D01*
X30513789Y-181995933D02*
X30479922Y-181928200D01*
X30479922Y-181928200D02*
X30412189Y-181860466D01*
X30412189Y-181860466D02*
X30276722Y-181826600D01*
X30276722Y-181826600D02*
X30039656Y-181826600D01*
X30039656Y-181826600D02*
X29904189Y-181860466D01*
X29904189Y-181860466D02*
X29836456Y-181928200D01*
X29836456Y-181928200D02*
X29802589Y-181995933D01*
X29802589Y-181995933D02*
X29802589Y-182131400D01*
X29802589Y-182131400D02*
X29836456Y-182199133D01*
X29836456Y-182199133D02*
X29904189Y-182266866D01*
X29904189Y-182266866D02*
X30039656Y-182300733D01*
X30039656Y-182300733D02*
X30276722Y-182300733D01*
X30276722Y-182300733D02*
X30412189Y-182266866D01*
X30412189Y-182266866D02*
X30479922Y-182199133D01*
X30479922Y-182199133D02*
X30513789Y-182131400D01*
X30513789Y-181521799D02*
X29938056Y-181521799D01*
X29938056Y-181521799D02*
X29870322Y-181487933D01*
X29870322Y-181487933D02*
X29836456Y-181454066D01*
X29836456Y-181454066D02*
X29802589Y-181386333D01*
X29802589Y-181386333D02*
X29802589Y-181250866D01*
X29802589Y-181250866D02*
X29836456Y-181183133D01*
X29836456Y-181183133D02*
X29870322Y-181149266D01*
X29870322Y-181149266D02*
X29938056Y-181115399D01*
X29938056Y-181115399D02*
X30513789Y-181115399D01*
X30513789Y-180878332D02*
X30513789Y-180471932D01*
X29802589Y-180675132D02*
X30513789Y-180675132D01*
M02*
