M48
; DRILL file KiCad 10.0.1 date 2026-05-10T14:51:58
; FORMAT={-:-/ absolute / metric / decimal}
; #@! TF.CreationDate,2026-05-10T14:51:58-04:00
; #@! TF.GenerationSoftware,Kicad,Pcbnew,10.0.1
; #@! TF.FileFunction,Plated,1,2,PTH
FMAT,2
METRIC
; #@! TA.AperFunction,Plated,PTH,ViaDrill
T1C0.254
; #@! TA.AperFunction,Plated,PTH,ViaDrill
T2C0.330
; #@! TA.AperFunction,Plated,PTH,ViaDrill
T3C0.400
; #@! TA.AperFunction,Plated,PTH,ComponentDrill
T4C0.800
; #@! TA.AperFunction,Plated,PTH,ComponentDrill
T5C0.900
; #@! TA.AperFunction,Plated,PTH,ComponentDrill
T6C1.000
; #@! TA.AperFunction,Plated,PTH,ComponentDrill
T7C1.016
; #@! TA.AperFunction,Plated,PTH,ComponentDrill
T8C2.800
; #@! TA.AperFunction,Plated,PTH,ComponentDrill
T9C3.175
%
G90
G05
T1
X98.912Y-131.609
X99.112Y-122.509
X115.012Y-119.809
X116.649Y-119.709
X117.012Y-129.437
X117.712Y-125.85
X118.412Y-130.609
X118.712Y-120.739
X124.65Y-127.47
X124.65Y-128.867
X125.912Y-131.109
T2
X99.377Y-118.072
X107.5Y-96.1
X107.612Y-120.809
X107.612Y-125.009
X115.164Y-83.439
X115.252Y-107.277
X115.912Y-101.159
X117.424Y-98.4
X118.282Y-99.194
X118.587Y-105.934
X118.681Y-102.832
X119.342Y-103.814
X119.697Y-109.817
X119.825Y-111.976
X120.357Y-103.07
X121.73Y-104.229
X122.491Y-106.515
X122.491Y-108.293
X122.618Y-93.561
X122.902Y-97.634
X123.642Y-97.194
X124.262Y-89.184
X124.892Y-98.781
X125.031Y-107.277
X125.21Y-97.101
X126.047Y-116.04
X126.301Y-110.706
X126.555Y-113.373
X126.812Y-126.454
X126.975Y-107.747
X127.012Y-122.009
X127.063Y-124.549
X127.444Y-113.373
X127.457Y-109.296
X127.469Y-110.222
X127.558Y-107.077
X127.825Y-115.913
X128.112Y-121.768
X128.333Y-113.373
X128.626Y-102.286
X129.286Y-89.332
X129.413Y-112.395
X129.692Y-98.247
X129.692Y-111.481
X129.731Y-126.454
X130.556Y-97.358
X130.619Y-113.246
X130.785Y-112.078
X131.127Y-104.483
X131.489Y-109.798
X131.644Y-110.697
X131.816Y-108.364
X132.143Y-122.39
X132.651Y-116.294
X132.779Y-102.832
X132.905Y-111.595
X133.032Y-105.626
X133.54Y-83.147
X133.54Y-112.23
X133.54Y-119.723
X134.474Y-103.194
X134.556Y-97.244
X135.191Y-108.801
X135.319Y-110.452
X135.826Y-106.642
X135.953Y-98.514
X136.334Y-110.452
X136.843Y-117.691
X137.338Y-92.761
X137.35Y-106.007
X137.56Y-94.558
X137.986Y-116.802
X138.239Y-103.975
X138.493Y-122.517
X138.62Y-94.577
X138.62Y-118.326
X139.51Y-103.975
X139.763Y-111.599
X139.891Y-117.31
X139.891Y-118.961
X140.017Y-98.641
X140.525Y-94.577
X140.653Y-106.642
X140.702Y-110.689
X140.702Y-112.339
X140.906Y-122.136
X141.034Y-105.118
X141.287Y-98.641
X142.049Y-105.245
X142.303Y-128.486
X142.558Y-124.93
X142.684Y-106.007
X143.446Y-128.74
X143.573Y-106.261
X143.573Y-124.803
X143.772Y-113.553
X144.208Y-104.229
X144.463Y-122.898
X144.589Y-106.388
X144.97Y-98.006
X145.495Y-110.417
X145.987Y-122.263
X146.113Y-124.168
X146.494Y-103.975
X146.749Y-107.15
X146.875Y-94.323
X146.875Y-120.231
X147.256Y-101.435
X147.383Y-111.087
X147.511Y-100.165
X147.637Y-121.501
X147.637Y-122.39
X147.764Y-107.277
X148.018Y-95.085
X148.018Y-104.229
X148.018Y-105.118
X148.272Y-95.974
X148.272Y-120.612
X148.526Y-122.771
X148.653Y-128.74
X149.034Y-119.977
X149.161Y-91.021
X149.288Y-105.118
X149.288Y-106.388
X149.542Y-113.246
X149.796Y-115.405
X150.304Y-99.149
X150.558Y-89.497
X150.558Y-101.562
X150.558Y-128.105
X150.575Y-97.371
X150.597Y-94.323
X150.939Y-106.007
X151.066Y-104.229
X152.337Y-103.975
X152.463Y-127.343
X152.59Y-92.164
X152.59Y-98.387
X152.59Y-125.184
X152.59Y-126.327
X154.495Y-111.087
X154.495Y-114.643
X154.495Y-115.659
X154.495Y-126.327
X154.623Y-103.975
X154.623Y-104.991
X154.623Y-106.007
X154.623Y-121.501
X154.623Y-122.517
X154.623Y-125.184
X154.749Y-98.006
X154.749Y-99.149
X154.749Y-127.343
X154.876Y-94.45
X154.876Y-95.593
X156.4Y-94.45
X156.4Y-95.593
X156.4Y-103.975
X156.4Y-104.991
X156.4Y-106.007
X156.4Y-111.087
X156.4Y-114.643
X156.4Y-115.659
X156.4Y-122.517
X156.4Y-126.327
X156.528Y-99.149
X157.416Y-98.006
X159.067Y-89.497
X160.591Y-121.374
X160.766Y-107.023
X161.607Y-118.326
X163.766Y-127.343
X164.02Y-89.497
T3
X113.513Y-77.064
X116.815Y-93.599
X117.373Y-91.77
X118.999Y-90.068
X120.762Y-97.844
X121.082Y-82.296
X121.945Y-92.71
X123.444Y-95.58
X124.282Y-92.685
X124.384Y-93.828
X125.908Y-92.685
X128.168Y-108.407
X129.083Y-94.463
X129.083Y-96.208
X129.261Y-103.911
X134.615Y-101.899
T4
X149.59Y-79.337
X149.59Y-86.322
X149.59Y-93.307
X149.59Y-100.292
X149.59Y-109.817
X149.59Y-116.802
X149.59Y-123.787
X149.59Y-130.772
X151.59Y-79.337
X151.59Y-86.322
X151.59Y-93.307
X151.59Y-100.292
X151.59Y-109.817
X151.59Y-116.802
X151.59Y-123.787
X151.59Y-130.772
X153.59Y-79.337
X153.59Y-86.322
X153.59Y-93.307
X153.59Y-100.292
X153.59Y-109.817
X153.59Y-116.802
X153.59Y-123.787
X153.59Y-130.772
X155.59Y-79.337
X155.59Y-86.322
X155.59Y-93.307
X155.59Y-100.292
X155.59Y-109.817
X155.59Y-116.802
X155.59Y-123.787
X155.59Y-130.772
X161.782Y-79.337
X161.782Y-86.322
X161.782Y-93.307
X161.782Y-100.292
X161.782Y-109.817
X161.782Y-116.802
X161.782Y-123.787
X161.782Y-130.772
X163.782Y-79.337
X163.782Y-86.322
X163.782Y-93.307
X163.782Y-100.292
X163.782Y-109.817
X163.782Y-116.802
X163.782Y-123.787
X163.782Y-130.772
X165.782Y-79.337
X165.782Y-86.322
X165.782Y-93.307
X165.782Y-100.292
X165.782Y-109.817
X165.782Y-116.802
X165.782Y-123.787
X165.782Y-130.772
X167.782Y-79.337
X167.782Y-86.322
X167.782Y-93.307
X167.782Y-100.292
X167.782Y-109.817
X167.782Y-116.802
X167.782Y-123.787
X167.782Y-130.772
T5
X99.377Y-108.928
X99.377Y-111.468
X99.377Y-114.008
X99.377Y-116.548
X117.03Y-132.677
X119.57Y-132.677
X120.31Y-87.496
X122.85Y-87.75
X125.285Y-132.677
X125.39Y-87.496
X127.93Y-87.75
X130.365Y-132.677
X130.7Y-88.55
X132.651Y-104.229
X145.225Y-131.915
T6
X124.175Y-77.755
X124.175Y-80.295
T7
X105.727Y-89.37
X105.727Y-91.91
X105.727Y-94.45
X105.727Y-96.99
X105.727Y-99.53
X105.727Y-102.07
X125.438Y-117.513
X125.438Y-120.053
X127.978Y-117.513
X127.978Y-120.053
X130.518Y-117.513
X130.518Y-120.053
T8
X103.822Y-85.433
T9
X100.774Y-80.607
X106.87Y-80.607
M30
