%TF.GenerationSoftware,KiCad,Pcbnew,10.0.1*%
%TF.CreationDate,2026-05-10T14:52:03-04:00*%
%TF.ProjectId,MusselGapeTracker_RevI,4d757373-656c-4476-9170-65547261636b,rev?*%
%TF.SameCoordinates,Original*%
%TF.FileFunction,Soldermask,Bot*%
%TF.FilePolarity,Negative*%
%FSLAX46Y46*%
G04 Gerber Fmt 4.6, Leading zero omitted, Abs format (unit mm)*
G04 Created by KiCad (PCBNEW 10.0.1) date 2026-05-10 14:52:03*
%MOMM*%
%LPD*%
G01*
G04 APERTURE LIST*
%ADD10C,0.000000*%
%ADD11C,3.403600*%
%ADD12C,1.574800*%
%ADD13C,2.301600*%
%ADD14O,3.152400X1.652400*%
%ADD15C,4.724400*%
G04 APERTURE END LIST*
D10*
%TO.C,GROUND_CON0*%
G36*
X133928400Y-109913400D02*
G01*
X133420400Y-109913400D01*
X133420400Y-109405400D01*
X133928400Y-109405400D01*
X133928400Y-109913400D01*
G37*
%TD*%
%TO.C,U$3*%
G36*
X130703808Y-131920227D02*
G01*
X130708710Y-131924718D01*
X131117882Y-132333890D01*
X131139910Y-132381131D01*
X131140200Y-132387772D01*
X131140200Y-132966428D01*
X131122373Y-133015408D01*
X131117882Y-133020310D01*
X130708710Y-133429482D01*
X130661469Y-133451510D01*
X130654828Y-133451800D01*
X130076172Y-133451800D01*
X130027192Y-133433973D01*
X130022290Y-133429482D01*
X129613118Y-133020310D01*
X129591090Y-132973069D01*
X129590800Y-132966428D01*
X129590800Y-132387772D01*
X129608627Y-132338792D01*
X129613118Y-132333890D01*
X130022290Y-131924718D01*
X130069531Y-131902690D01*
X130076172Y-131902400D01*
X130654828Y-131902400D01*
X130703808Y-131920227D01*
G37*
%TD*%
D11*
%TO.C,STANDOFF2*%
X102679500Y-106134100D03*
%TD*%
D12*
%TO.C,HALL6*%
X155590500Y-100292100D03*
X153590500Y-100292100D03*
X151590500Y-100292100D03*
X149590500Y-100292100D03*
%TD*%
%TO.C,U$10*%
G36*
X132989808Y-103472227D02*
G01*
X132994710Y-103476718D01*
X133403882Y-103885890D01*
X133425910Y-103933131D01*
X133426200Y-103939772D01*
X133426200Y-104518428D01*
X133408373Y-104567408D01*
X133403882Y-104572310D01*
X132994710Y-104981482D01*
X132947469Y-105003510D01*
X132940828Y-105003800D01*
X132362172Y-105003800D01*
X132313192Y-104985973D01*
X132308290Y-104981482D01*
X131899118Y-104572310D01*
X131877090Y-104525069D01*
X131876800Y-104518428D01*
X131876800Y-103939772D01*
X131894627Y-103890792D01*
X131899118Y-103885890D01*
X132308290Y-103476718D01*
X132355531Y-103454690D01*
X132362172Y-103454400D01*
X132940828Y-103454400D01*
X132989808Y-103472227D01*
G37*
%TD*%
%TO.C,HALL9*%
X167782500Y-109817100D03*
X165782500Y-109817100D03*
X163782500Y-109817100D03*
X161782500Y-109817100D03*
%TD*%
%TO.C,HALL10*%
X155590500Y-116802100D03*
X153590500Y-116802100D03*
X151590500Y-116802100D03*
X149590500Y-116802100D03*
%TD*%
%TO.C,J1*%
G36*
X130079642Y-118511473D02*
G01*
X130074740Y-118506982D01*
X129524218Y-117956460D01*
X129502190Y-117909219D01*
X129501900Y-117902578D01*
X129501900Y-117124022D01*
X129519727Y-117075042D01*
X129524218Y-117070140D01*
X130074740Y-116519618D01*
X130121981Y-116497590D01*
X130128622Y-116497300D01*
X130907178Y-116497300D01*
X130956158Y-116515127D01*
X130961060Y-116519618D01*
X131511582Y-117070140D01*
X131533610Y-117117381D01*
X131533900Y-117124022D01*
X131533900Y-117902578D01*
X131516073Y-117951558D01*
X131511582Y-117956460D01*
X130961060Y-118506982D01*
X130913819Y-118529010D01*
X130907178Y-118529300D01*
X130128622Y-118529300D01*
X130079642Y-118511473D01*
G37*
G36*
X130079642Y-121051473D02*
G01*
X130074740Y-121046982D01*
X129524218Y-120496460D01*
X129502190Y-120449219D01*
X129501900Y-120442578D01*
X129501900Y-119664022D01*
X129519727Y-119615042D01*
X129524218Y-119610140D01*
X130074740Y-119059618D01*
X130121981Y-119037590D01*
X130128622Y-119037300D01*
X130907178Y-119037300D01*
X130956158Y-119055127D01*
X130961060Y-119059618D01*
X131511582Y-119610140D01*
X131533610Y-119657381D01*
X131533900Y-119664022D01*
X131533900Y-120442578D01*
X131516073Y-120491558D01*
X131511582Y-120496460D01*
X130961060Y-121046982D01*
X130913819Y-121069010D01*
X130907178Y-121069300D01*
X130128622Y-121069300D01*
X130079642Y-121051473D01*
G37*
G36*
X127539642Y-118511473D02*
G01*
X127534740Y-118506982D01*
X126984218Y-117956460D01*
X126962190Y-117909219D01*
X126961900Y-117902578D01*
X126961900Y-117124022D01*
X126979727Y-117075042D01*
X126984218Y-117070140D01*
X127534740Y-116519618D01*
X127581981Y-116497590D01*
X127588622Y-116497300D01*
X128367178Y-116497300D01*
X128416158Y-116515127D01*
X128421060Y-116519618D01*
X128971582Y-117070140D01*
X128993610Y-117117381D01*
X128993900Y-117124022D01*
X128993900Y-117902578D01*
X128976073Y-117951558D01*
X128971582Y-117956460D01*
X128421060Y-118506982D01*
X128373819Y-118529010D01*
X128367178Y-118529300D01*
X127588622Y-118529300D01*
X127539642Y-118511473D01*
G37*
G36*
X127539642Y-121051473D02*
G01*
X127534740Y-121046982D01*
X126984218Y-120496460D01*
X126962190Y-120449219D01*
X126961900Y-120442578D01*
X126961900Y-119664022D01*
X126979727Y-119615042D01*
X126984218Y-119610140D01*
X127534740Y-119059618D01*
X127581981Y-119037590D01*
X127588622Y-119037300D01*
X128367178Y-119037300D01*
X128416158Y-119055127D01*
X128421060Y-119059618D01*
X128971582Y-119610140D01*
X128993610Y-119657381D01*
X128993900Y-119664022D01*
X128993900Y-120442578D01*
X128976073Y-120491558D01*
X128971582Y-120496460D01*
X128421060Y-121046982D01*
X128373819Y-121069010D01*
X128367178Y-121069300D01*
X127588622Y-121069300D01*
X127539642Y-121051473D01*
G37*
G36*
X124999642Y-118511473D02*
G01*
X124994740Y-118506982D01*
X124444218Y-117956460D01*
X124422190Y-117909219D01*
X124421900Y-117902578D01*
X124421900Y-117124022D01*
X124439727Y-117075042D01*
X124444218Y-117070140D01*
X124994740Y-116519618D01*
X125041981Y-116497590D01*
X125048622Y-116497300D01*
X125827178Y-116497300D01*
X125876158Y-116515127D01*
X125881060Y-116519618D01*
X126431582Y-117070140D01*
X126453610Y-117117381D01*
X126453900Y-117124022D01*
X126453900Y-117902578D01*
X126436073Y-117951558D01*
X126431582Y-117956460D01*
X125881060Y-118506982D01*
X125833819Y-118529010D01*
X125827178Y-118529300D01*
X125048622Y-118529300D01*
X124999642Y-118511473D01*
G37*
G36*
X124999642Y-121051473D02*
G01*
X124994740Y-121046982D01*
X124444218Y-120496460D01*
X124422190Y-120449219D01*
X124421900Y-120442578D01*
X124421900Y-119664022D01*
X124439727Y-119615042D01*
X124444218Y-119610140D01*
X124994740Y-119059618D01*
X125041981Y-119037590D01*
X125048622Y-119037300D01*
X125827178Y-119037300D01*
X125876158Y-119055127D01*
X125881060Y-119059618D01*
X126431582Y-119610140D01*
X126453610Y-119657381D01*
X126453900Y-119664022D01*
X126453900Y-120442578D01*
X126436073Y-120491558D01*
X126431582Y-120496460D01*
X125881060Y-121046982D01*
X125833819Y-121069010D01*
X125827178Y-121069300D01*
X125048622Y-121069300D01*
X124999642Y-121051473D01*
G37*
%TD*%
D13*
%TO.C,STANDOFF5_M2*%
X112250000Y-88775000D03*
%TD*%
%TO.C,U$17*%
G36*
X131038308Y-87793127D02*
G01*
X131043210Y-87797618D01*
X131452382Y-88206790D01*
X131474410Y-88254031D01*
X131474700Y-88260672D01*
X131474700Y-88839328D01*
X131456873Y-88888308D01*
X131452382Y-88893210D01*
X131043210Y-89302382D01*
X130995969Y-89324410D01*
X130989328Y-89324700D01*
X130410672Y-89324700D01*
X130361692Y-89306873D01*
X130356790Y-89302382D01*
X129947618Y-88893210D01*
X129925590Y-88845969D01*
X129925300Y-88839328D01*
X129925300Y-88260672D01*
X129943127Y-88211692D01*
X129947618Y-88206790D01*
X130356790Y-87797618D01*
X130404031Y-87775590D01*
X130410672Y-87775300D01*
X130989328Y-87775300D01*
X131038308Y-87793127D01*
G37*
%TD*%
D12*
%TO.C,HALL11*%
X167782500Y-116802100D03*
X165782500Y-116802100D03*
X163782500Y-116802100D03*
X161782500Y-116802100D03*
%TD*%
%TO.C,HALL15*%
X167782500Y-130772100D03*
X165782500Y-130772100D03*
X163782500Y-130772100D03*
X161782500Y-130772100D03*
%TD*%
%TO.C,U$6*%
G36*
X99715808Y-108171227D02*
G01*
X99720710Y-108175718D01*
X100129882Y-108584890D01*
X100151910Y-108632131D01*
X100152200Y-108638772D01*
X100152200Y-109217428D01*
X100134373Y-109266408D01*
X100129882Y-109271310D01*
X99720710Y-109680482D01*
X99673469Y-109702510D01*
X99666828Y-109702800D01*
X99088172Y-109702800D01*
X99039192Y-109684973D01*
X99034290Y-109680482D01*
X98625118Y-109271310D01*
X98603090Y-109224069D01*
X98602800Y-109217428D01*
X98602800Y-108638772D01*
X98620627Y-108589792D01*
X98625118Y-108584890D01*
X99034290Y-108175718D01*
X99081531Y-108153690D01*
X99088172Y-108153400D01*
X99666828Y-108153400D01*
X99715808Y-108171227D01*
G37*
%TD*%
%TO.C,U$7*%
G36*
X99715808Y-110711227D02*
G01*
X99720710Y-110715718D01*
X100129882Y-111124890D01*
X100151910Y-111172131D01*
X100152200Y-111178772D01*
X100152200Y-111757428D01*
X100134373Y-111806408D01*
X100129882Y-111811310D01*
X99720710Y-112220482D01*
X99673469Y-112242510D01*
X99666828Y-112242800D01*
X99088172Y-112242800D01*
X99039192Y-112224973D01*
X99034290Y-112220482D01*
X98625118Y-111811310D01*
X98603090Y-111764069D01*
X98602800Y-111757428D01*
X98602800Y-111178772D01*
X98620627Y-111129792D01*
X98625118Y-111124890D01*
X99034290Y-110715718D01*
X99081531Y-110693690D01*
X99088172Y-110693400D01*
X99666828Y-110693400D01*
X99715808Y-110711227D01*
G37*
%TD*%
%TO.C,PB7*%
G36*
X119908808Y-131920227D02*
G01*
X119913710Y-131924718D01*
X120322882Y-132333890D01*
X120344910Y-132381131D01*
X120345200Y-132387772D01*
X120345200Y-132966428D01*
X120327373Y-133015408D01*
X120322882Y-133020310D01*
X119913710Y-133429482D01*
X119866469Y-133451510D01*
X119859828Y-133451800D01*
X119281172Y-133451800D01*
X119232192Y-133433973D01*
X119227290Y-133429482D01*
X118818118Y-133020310D01*
X118796090Y-132973069D01*
X118795800Y-132966428D01*
X118795800Y-132387772D01*
X118813627Y-132338792D01*
X118818118Y-132333890D01*
X119227290Y-131924718D01*
X119274531Y-131902690D01*
X119281172Y-131902400D01*
X119859828Y-131902400D01*
X119908808Y-131920227D01*
G37*
%TD*%
%TO.C,OLED0*%
G36*
X119540427Y-87152431D02*
G01*
X119544918Y-87147529D01*
X119961529Y-86730918D01*
X120008770Y-86708890D01*
X120015411Y-86708600D01*
X120604589Y-86708600D01*
X120653569Y-86726427D01*
X120658471Y-86730918D01*
X121075082Y-87147529D01*
X121097110Y-87194770D01*
X121097400Y-87201411D01*
X121097400Y-87790589D01*
X121079573Y-87839569D01*
X121075082Y-87844471D01*
X120658471Y-88261082D01*
X120611230Y-88283110D01*
X120604589Y-88283400D01*
X120015411Y-88283400D01*
X119966431Y-88265573D01*
X119961529Y-88261082D01*
X119544918Y-87844471D01*
X119522890Y-87797230D01*
X119522600Y-87790589D01*
X119522600Y-87201411D01*
X119540427Y-87152431D01*
G37*
G36*
X122080427Y-87406431D02*
G01*
X122084918Y-87401529D01*
X122501529Y-86984918D01*
X122548770Y-86962890D01*
X122555411Y-86962600D01*
X123144589Y-86962600D01*
X123193569Y-86980427D01*
X123198471Y-86984918D01*
X123615082Y-87401529D01*
X123637110Y-87448770D01*
X123637400Y-87455411D01*
X123637400Y-88044589D01*
X123619573Y-88093569D01*
X123615082Y-88098471D01*
X123198471Y-88515082D01*
X123151230Y-88537110D01*
X123144589Y-88537400D01*
X122555411Y-88537400D01*
X122506431Y-88519573D01*
X122501529Y-88515082D01*
X122084918Y-88098471D01*
X122062890Y-88051230D01*
X122062600Y-88044589D01*
X122062600Y-87455411D01*
X122080427Y-87406431D01*
G37*
G36*
X124620427Y-87152431D02*
G01*
X124624918Y-87147529D01*
X125041529Y-86730918D01*
X125088770Y-86708890D01*
X125095411Y-86708600D01*
X125684589Y-86708600D01*
X125733569Y-86726427D01*
X125738471Y-86730918D01*
X126155082Y-87147529D01*
X126177110Y-87194770D01*
X126177400Y-87201411D01*
X126177400Y-87790589D01*
X126159573Y-87839569D01*
X126155082Y-87844471D01*
X125738471Y-88261082D01*
X125691230Y-88283110D01*
X125684589Y-88283400D01*
X125095411Y-88283400D01*
X125046431Y-88265573D01*
X125041529Y-88261082D01*
X124624918Y-87844471D01*
X124602890Y-87797230D01*
X124602600Y-87790589D01*
X124602600Y-87201411D01*
X124620427Y-87152431D01*
G37*
G36*
X127160427Y-87406431D02*
G01*
X127164918Y-87401529D01*
X127581529Y-86984918D01*
X127628770Y-86962890D01*
X127635411Y-86962600D01*
X128224589Y-86962600D01*
X128273569Y-86980427D01*
X128278471Y-86984918D01*
X128695082Y-87401529D01*
X128717110Y-87448770D01*
X128717400Y-87455411D01*
X128717400Y-88044589D01*
X128699573Y-88093569D01*
X128695082Y-88098471D01*
X128278471Y-88515082D01*
X128231230Y-88537110D01*
X128224589Y-88537400D01*
X127635411Y-88537400D01*
X127586431Y-88519573D01*
X127581529Y-88515082D01*
X127164918Y-88098471D01*
X127142890Y-88051230D01*
X127142600Y-88044589D01*
X127142600Y-87455411D01*
X127160427Y-87406431D01*
G37*
%TD*%
D11*
%TO.C,STANDOFF3*%
X138620500Y-131407100D03*
%TD*%
D12*
%TO.C,HALL0*%
X155590500Y-79337100D03*
X153590500Y-79337100D03*
X151590500Y-79337100D03*
X149590500Y-79337100D03*
%TD*%
%TO.C,HALL12*%
X155590500Y-123787100D03*
X153590500Y-123787100D03*
X151590500Y-123787100D03*
X149590500Y-123787100D03*
%TD*%
%TO.C,U$8*%
G36*
X99715808Y-113251227D02*
G01*
X99720710Y-113255718D01*
X100129882Y-113664890D01*
X100151910Y-113712131D01*
X100152200Y-113718772D01*
X100152200Y-114297428D01*
X100134373Y-114346408D01*
X100129882Y-114351310D01*
X99720710Y-114760482D01*
X99673469Y-114782510D01*
X99666828Y-114782800D01*
X99088172Y-114782800D01*
X99039192Y-114764973D01*
X99034290Y-114760482D01*
X98625118Y-114351310D01*
X98603090Y-114304069D01*
X98602800Y-114297428D01*
X98602800Y-113718772D01*
X98620627Y-113669792D01*
X98625118Y-113664890D01*
X99034290Y-113255718D01*
X99081531Y-113233690D01*
X99088172Y-113233400D01*
X99666828Y-113233400D01*
X99715808Y-113251227D01*
G37*
%TD*%
%TO.C,HALL8*%
X155590500Y-109817100D03*
X153590500Y-109817100D03*
X151590500Y-109817100D03*
X149590500Y-109817100D03*
%TD*%
%TO.C,HALL2*%
X155590500Y-86322100D03*
X153590500Y-86322100D03*
X151590500Y-86322100D03*
X149590500Y-86322100D03*
%TD*%
%TO.C,JP1*%
G36*
X105362889Y-102890473D02*
G01*
X105357987Y-102885982D01*
X104911618Y-102439613D01*
X104889590Y-102392372D01*
X104889300Y-102385731D01*
X104889300Y-101754469D01*
X104907127Y-101705489D01*
X104911618Y-101700587D01*
X105357987Y-101254218D01*
X105405228Y-101232190D01*
X105411869Y-101231900D01*
X106043131Y-101231900D01*
X106092111Y-101249727D01*
X106097013Y-101254218D01*
X106543382Y-101700587D01*
X106565410Y-101747828D01*
X106565700Y-101754469D01*
X106565700Y-102385731D01*
X106547873Y-102434711D01*
X106543382Y-102439613D01*
X106097013Y-102885982D01*
X106049772Y-102908010D01*
X106043131Y-102908300D01*
X105411869Y-102908300D01*
X105362889Y-102890473D01*
G37*
G36*
X105362889Y-100350473D02*
G01*
X105357987Y-100345982D01*
X104911618Y-99899613D01*
X104889590Y-99852372D01*
X104889300Y-99845731D01*
X104889300Y-99214469D01*
X104907127Y-99165489D01*
X104911618Y-99160587D01*
X105357987Y-98714218D01*
X105405228Y-98692190D01*
X105411869Y-98691900D01*
X106043131Y-98691900D01*
X106092111Y-98709727D01*
X106097013Y-98714218D01*
X106543382Y-99160587D01*
X106565410Y-99207828D01*
X106565700Y-99214469D01*
X106565700Y-99845731D01*
X106547873Y-99894711D01*
X106543382Y-99899613D01*
X106097013Y-100345982D01*
X106049772Y-100368010D01*
X106043131Y-100368300D01*
X105411869Y-100368300D01*
X105362889Y-100350473D01*
G37*
G36*
X105362889Y-97810473D02*
G01*
X105357987Y-97805982D01*
X104911618Y-97359613D01*
X104889590Y-97312372D01*
X104889300Y-97305731D01*
X104889300Y-96674469D01*
X104907127Y-96625489D01*
X104911618Y-96620587D01*
X105357987Y-96174218D01*
X105405228Y-96152190D01*
X105411869Y-96151900D01*
X106043131Y-96151900D01*
X106092111Y-96169727D01*
X106097013Y-96174218D01*
X106543382Y-96620587D01*
X106565410Y-96667828D01*
X106565700Y-96674469D01*
X106565700Y-97305731D01*
X106547873Y-97354711D01*
X106543382Y-97359613D01*
X106097013Y-97805982D01*
X106049772Y-97828010D01*
X106043131Y-97828300D01*
X105411869Y-97828300D01*
X105362889Y-97810473D01*
G37*
G36*
X105362889Y-95270473D02*
G01*
X105357987Y-95265982D01*
X104911618Y-94819613D01*
X104889590Y-94772372D01*
X104889300Y-94765731D01*
X104889300Y-94134469D01*
X104907127Y-94085489D01*
X104911618Y-94080587D01*
X105357987Y-93634218D01*
X105405228Y-93612190D01*
X105411869Y-93611900D01*
X106043131Y-93611900D01*
X106092111Y-93629727D01*
X106097013Y-93634218D01*
X106543382Y-94080587D01*
X106565410Y-94127828D01*
X106565700Y-94134469D01*
X106565700Y-94765731D01*
X106547873Y-94814711D01*
X106543382Y-94819613D01*
X106097013Y-95265982D01*
X106049772Y-95288010D01*
X106043131Y-95288300D01*
X105411869Y-95288300D01*
X105362889Y-95270473D01*
G37*
G36*
X105362889Y-92730473D02*
G01*
X105357987Y-92725982D01*
X104911618Y-92279613D01*
X104889590Y-92232372D01*
X104889300Y-92225731D01*
X104889300Y-91594469D01*
X104907127Y-91545489D01*
X104911618Y-91540587D01*
X105357987Y-91094218D01*
X105405228Y-91072190D01*
X105411869Y-91071900D01*
X106043131Y-91071900D01*
X106092111Y-91089727D01*
X106097013Y-91094218D01*
X106543382Y-91540587D01*
X106565410Y-91587828D01*
X106565700Y-91594469D01*
X106565700Y-92225731D01*
X106547873Y-92274711D01*
X106543382Y-92279613D01*
X106097013Y-92725982D01*
X106049772Y-92748010D01*
X106043131Y-92748300D01*
X105411869Y-92748300D01*
X105362889Y-92730473D01*
G37*
G36*
X105362889Y-90190473D02*
G01*
X105357987Y-90185982D01*
X104911618Y-89739613D01*
X104889590Y-89692372D01*
X104889300Y-89685731D01*
X104889300Y-89054469D01*
X104907127Y-89005489D01*
X104911618Y-89000587D01*
X105357987Y-88554218D01*
X105405228Y-88532190D01*
X105411869Y-88531900D01*
X106043131Y-88531900D01*
X106092111Y-88549727D01*
X106097013Y-88554218D01*
X106543382Y-89000587D01*
X106565410Y-89047828D01*
X106565700Y-89054469D01*
X106565700Y-89685731D01*
X106547873Y-89734711D01*
X106543382Y-89739613D01*
X106097013Y-90185982D01*
X106049772Y-90208010D01*
X106043131Y-90208300D01*
X105411869Y-90208300D01*
X105362889Y-90190473D01*
G37*
%TD*%
%TO.C,U$9*%
G36*
X99715808Y-115791227D02*
G01*
X99720710Y-115795718D01*
X100129882Y-116204890D01*
X100151910Y-116252131D01*
X100152200Y-116258772D01*
X100152200Y-116837428D01*
X100134373Y-116886408D01*
X100129882Y-116891310D01*
X99720710Y-117300482D01*
X99673469Y-117322510D01*
X99666828Y-117322800D01*
X99088172Y-117322800D01*
X99039192Y-117304973D01*
X99034290Y-117300482D01*
X98625118Y-116891310D01*
X98603090Y-116844069D01*
X98602800Y-116837428D01*
X98602800Y-116258772D01*
X98620627Y-116209792D01*
X98625118Y-116204890D01*
X99034290Y-115795718D01*
X99081531Y-115773690D01*
X99088172Y-115773400D01*
X99666828Y-115773400D01*
X99715808Y-115791227D01*
G37*
%TD*%
%TO.C,U$4*%
G36*
X125623808Y-131920227D02*
G01*
X125628710Y-131924718D01*
X126037882Y-132333890D01*
X126059910Y-132381131D01*
X126060200Y-132387772D01*
X126060200Y-132966428D01*
X126042373Y-133015408D01*
X126037882Y-133020310D01*
X125628710Y-133429482D01*
X125581469Y-133451510D01*
X125574828Y-133451800D01*
X124996172Y-133451800D01*
X124947192Y-133433973D01*
X124942290Y-133429482D01*
X124533118Y-133020310D01*
X124511090Y-132973069D01*
X124510800Y-132966428D01*
X124510800Y-132387772D01*
X124528627Y-132338792D01*
X124533118Y-132333890D01*
X124942290Y-131924718D01*
X124989531Y-131902690D01*
X124996172Y-131902400D01*
X125574828Y-131902400D01*
X125623808Y-131920227D01*
G37*
%TD*%
D13*
%TO.C,STANDOFF4_M2*%
X112275000Y-112550000D03*
%TD*%
D14*
%TO.C,MOLEX_KK0*%
X124175000Y-80295000D03*
X124175000Y-77755000D03*
%TD*%
D12*
%TO.C,HALL7*%
X167782500Y-100292100D03*
X165782500Y-100292100D03*
X163782500Y-100292100D03*
X161782500Y-100292100D03*
%TD*%
%TO.C,HALL13*%
X167782500Y-123787100D03*
X165782500Y-123787100D03*
X163782500Y-123787100D03*
X161782500Y-123787100D03*
%TD*%
D11*
%TO.C,STANDOFF1*%
X144012400Y-91809400D03*
%TD*%
D12*
%TO.C,HALL4*%
X155590500Y-93307100D03*
X153590500Y-93307100D03*
X151590500Y-93307100D03*
X149590500Y-93307100D03*
%TD*%
%TO.C,GND0*%
G36*
X117368808Y-131920227D02*
G01*
X117373710Y-131924718D01*
X117782882Y-132333890D01*
X117804910Y-132381131D01*
X117805200Y-132387772D01*
X117805200Y-132966428D01*
X117787373Y-133015408D01*
X117782882Y-133020310D01*
X117373710Y-133429482D01*
X117326469Y-133451510D01*
X117319828Y-133451800D01*
X116741172Y-133451800D01*
X116692192Y-133433973D01*
X116687290Y-133429482D01*
X116278118Y-133020310D01*
X116256090Y-132973069D01*
X116255800Y-132966428D01*
X116255800Y-132387772D01*
X116273627Y-132338792D01*
X116278118Y-132333890D01*
X116687290Y-131924718D01*
X116734531Y-131902690D01*
X116741172Y-131902400D01*
X117319828Y-131902400D01*
X117368808Y-131920227D01*
G37*
%TD*%
%TO.C,HALL1*%
X167782500Y-79337100D03*
X165782500Y-79337100D03*
X163782500Y-79337100D03*
X161782500Y-79337100D03*
%TD*%
%TO.C,U$11*%
G36*
X145562808Y-131158227D02*
G01*
X145567710Y-131162718D01*
X145976882Y-131571890D01*
X145998910Y-131619131D01*
X145999200Y-131625772D01*
X145999200Y-132204428D01*
X145981373Y-132253408D01*
X145976882Y-132258310D01*
X145567710Y-132667482D01*
X145520469Y-132689510D01*
X145513828Y-132689800D01*
X144935172Y-132689800D01*
X144886192Y-132671973D01*
X144881290Y-132667482D01*
X144472118Y-132258310D01*
X144450090Y-132211069D01*
X144449800Y-132204428D01*
X144449800Y-131625772D01*
X144467627Y-131576792D01*
X144472118Y-131571890D01*
X144881290Y-131162718D01*
X144928531Y-131140690D01*
X144935172Y-131140400D01*
X145513828Y-131140400D01*
X145562808Y-131158227D01*
G37*
%TD*%
%TO.C,HALL14*%
X155590500Y-130772100D03*
X153590500Y-130772100D03*
X151590500Y-130772100D03*
X149590500Y-130772100D03*
%TD*%
D15*
%TO.C,UNK2\u002C1MM_JACK0*%
X106870500Y-80607100D03*
G36*
G01*
X102946200Y-78511600D02*
X102946200Y-82702600D01*
G75*
G02*
X102870000Y-82778800I-76200J0D01*
G01*
X98679000Y-82778800D01*
G75*
G02*
X98602800Y-82702600I0J76200D01*
G01*
X98602800Y-78511600D01*
G75*
G02*
X98679000Y-78435400I76200J0D01*
G01*
X102870000Y-78435400D01*
G75*
G02*
X102946200Y-78511600I0J-76200D01*
G01*
G37*
G36*
G01*
X105806700Y-83525100D02*
X105806700Y-87341100D01*
G75*
G02*
X105730500Y-87417300I-76200J0D01*
G01*
X101914500Y-87417300D01*
G75*
G02*
X101838300Y-87341100I0J76200D01*
G01*
X101838300Y-83525100D01*
G75*
G02*
X101914500Y-83448900I76200J0D01*
G01*
X105730500Y-83448900D01*
G75*
G02*
X105806700Y-83525100I0J-76200D01*
G01*
G37*
%TD*%
D12*
%TO.C,HALL3*%
X167782500Y-86322100D03*
X165782500Y-86322100D03*
X163782500Y-86322100D03*
X161782500Y-86322100D03*
%TD*%
%TO.C,HALL5*%
X167782500Y-93307100D03*
X165782500Y-93307100D03*
X163782500Y-93307100D03*
X161782500Y-93307100D03*
%TD*%
%TO.C,GROUND_CON0*%
G36*
G01*
X132772700Y-110294400D02*
X132772700Y-109024400D01*
G75*
G02*
X132848900Y-108948200I76200J0D01*
G01*
X133483900Y-108948200D01*
G75*
G02*
X133560100Y-109024400I0J-76200D01*
G01*
X133560100Y-110294400D01*
G75*
G02*
X133483900Y-110370600I-76200J0D01*
G01*
X132848900Y-110370600D01*
G75*
G02*
X132772700Y-110294400I0J76200D01*
G01*
G37*
G36*
G01*
X133788700Y-110294400D02*
X133788700Y-109024400D01*
G75*
G02*
X133864900Y-108948200I76200J0D01*
G01*
X134499900Y-108948200D01*
G75*
G02*
X134576100Y-109024400I0J-76200D01*
G01*
X134576100Y-110294400D01*
G75*
G02*
X134499900Y-110370600I-76200J0D01*
G01*
X133864900Y-110370600D01*
G75*
G02*
X133788700Y-110294400I0J76200D01*
G01*
G37*
%TD*%
M02*
