%TF.GenerationSoftware,KiCad,Pcbnew,10.0.0*%
%TF.CreationDate,2026-06-26T16:02:18-04:00*%
%TF.ProjectId,Hall_effect_sensor_board_A139x,48616c6c-5f65-4666-9665-63745f73656e,rev?*%
%TF.SameCoordinates,Original*%
%TF.FileFunction,Paste,Top*%
%TF.FilePolarity,Positive*%
%FSLAX46Y46*%
G04 Gerber Fmt 4.6, Leading zero omitted, Abs format (unit mm)*
G04 Created by KiCad (PCBNEW 10.0.0) date 2026-06-26 16:02:18*
%MOMM*%
%LPD*%
G01*
G04 APERTURE LIST*
%ADD10C,0.010000*%
%ADD11R,3.600000X0.200000*%
%ADD12R,0.900000X0.200000*%
G04 APERTURE END LIST*
D10*
%TO.C,U1*%
X27859000Y-176925300D02*
X27259000Y-176925300D01*
X27259000Y-176134371D01*
X27859000Y-176134371D01*
X27859000Y-176925300D01*
G36*
X27859000Y-176925300D02*
G01*
X27259000Y-176925300D01*
X27259000Y-176134371D01*
X27859000Y-176134371D01*
X27859000Y-176925300D01*
G37*
%TD*%
D11*
%TO.C,U1*%
X27559000Y-176030000D03*
D12*
X28909000Y-177030000D03*
X28909000Y-176530000D03*
X26209000Y-176530000D03*
X26209000Y-177030000D03*
%TD*%
%TO.C,R1*%
G36*
G01*
X26600000Y-180760000D02*
X26050000Y-180760000D01*
G75*
G02*
X25850000Y-180560000I0J200000D01*
G01*
X25850000Y-180160000D01*
G75*
G02*
X26050000Y-179960000I200000J0D01*
G01*
X26600000Y-179960000D01*
G75*
G02*
X26800000Y-180160000I0J-200000D01*
G01*
X26800000Y-180560000D01*
G75*
G02*
X26600000Y-180760000I-200000J0D01*
G01*
G37*
G36*
G01*
X26600000Y-179110000D02*
X26050000Y-179110000D01*
G75*
G02*
X25850000Y-178910000I0J200000D01*
G01*
X25850000Y-178510000D01*
G75*
G02*
X26050000Y-178310000I200000J0D01*
G01*
X26600000Y-178310000D01*
G75*
G02*
X26800000Y-178510000I0J-200000D01*
G01*
X26800000Y-178910000D01*
G75*
G02*
X26600000Y-179110000I-200000J0D01*
G01*
G37*
%TD*%
%TO.C,C1*%
G36*
G01*
X29325000Y-180760000D02*
X28825000Y-180760000D01*
G75*
G02*
X28600000Y-180535000I0J225000D01*
G01*
X28600000Y-180085000D01*
G75*
G02*
X28825000Y-179860000I225000J0D01*
G01*
X29325000Y-179860000D01*
G75*
G02*
X29550000Y-180085000I0J-225000D01*
G01*
X29550000Y-180535000D01*
G75*
G02*
X29325000Y-180760000I-225000J0D01*
G01*
G37*
G36*
G01*
X29325000Y-179210000D02*
X28825000Y-179210000D01*
G75*
G02*
X28600000Y-178985000I0J225000D01*
G01*
X28600000Y-178535000D01*
G75*
G02*
X28825000Y-178310000I225000J0D01*
G01*
X29325000Y-178310000D01*
G75*
G02*
X29550000Y-178535000I0J-225000D01*
G01*
X29550000Y-178985000D01*
G75*
G02*
X29325000Y-179210000I-225000J0D01*
G01*
G37*
%TD*%
M02*
