%TF.GenerationSoftware,KiCad,Pcbnew,10.0.1*%
%TF.CreationDate,2026-05-10T14:52:03-04:00*%
%TF.ProjectId,MusselGapeTracker_RevI,4d757373-656c-4476-9170-65547261636b,rev?*%
%TF.SameCoordinates,Original*%
%TF.FileFunction,Paste,Top*%
%TF.FilePolarity,Positive*%
%FSLAX46Y46*%
G04 Gerber Fmt 4.6, Leading zero omitted, Abs format (unit mm)*
G04 Created by KiCad (PCBNEW 10.0.1) date 2026-05-10 14:52:03*
%MOMM*%
%LPD*%
G01*
G04 APERTURE LIST*
%ADD10R,1.270000X0.558800*%
%ADD11R,1.550000X1.300000*%
%ADD12R,0.660400X2.032000*%
%ADD13R,1.400000X2.667000*%
%ADD14R,1.200000X1.200000*%
%ADD15R,4.064000X4.064000*%
%ADD16R,3.429000X3.429000*%
%ADD17R,0.800000X0.900000*%
%ADD18R,1.000000X1.600000*%
%ADD19R,1.000000X1.400000*%
%ADD20R,0.700000X1.450000*%
%ADD21R,0.558800X1.270000*%
%ADD22R,0.939800X0.889000*%
%ADD23R,0.787400X1.041400*%
%ADD24R,1.092200X0.711200*%
%ADD25R,1.828800X1.143000*%
%ADD26R,3.327400X0.711200*%
%ADD27R,2.794000X0.863600*%
G04 APERTURE END LIST*
D10*
%TO.C,MCP1700T-3302*%
X116016400Y-79314800D03*
X116016400Y-77435200D03*
X113933600Y-78375000D03*
%TD*%
%TO.C,R9*%
G36*
G01*
X122212500Y-96875000D02*
X121737500Y-96875000D01*
G75*
G02*
X121500000Y-96637500I0J237500D01*
G01*
X121500000Y-96137500D01*
G75*
G02*
X121737500Y-95900000I237500J0D01*
G01*
X122212500Y-95900000D01*
G75*
G02*
X122450000Y-96137500I0J-237500D01*
G01*
X122450000Y-96637500D01*
G75*
G02*
X122212500Y-96875000I-237500J0D01*
G01*
G37*
G36*
G01*
X122212500Y-95050000D02*
X121737500Y-95050000D01*
G75*
G02*
X121500000Y-94812500I0J237500D01*
G01*
X121500000Y-94312500D01*
G75*
G02*
X121737500Y-94075000I237500J0D01*
G01*
X122212500Y-94075000D01*
G75*
G02*
X122450000Y-94312500I0J-237500D01*
G01*
X122450000Y-94812500D01*
G75*
G02*
X122212500Y-95050000I-237500J0D01*
G01*
G37*
%TD*%
%TO.C,R3*%
G36*
G01*
X133410500Y-117547600D02*
X133410500Y-117072600D01*
G75*
G02*
X133648000Y-116835100I237500J0D01*
G01*
X134148000Y-116835100D01*
G75*
G02*
X134385500Y-117072600I0J-237500D01*
G01*
X134385500Y-117547600D01*
G75*
G02*
X134148000Y-117785100I-237500J0D01*
G01*
X133648000Y-117785100D01*
G75*
G02*
X133410500Y-117547600I0J237500D01*
G01*
G37*
G36*
G01*
X135235500Y-117547600D02*
X135235500Y-117072600D01*
G75*
G02*
X135473000Y-116835100I237500J0D01*
G01*
X135973000Y-116835100D01*
G75*
G02*
X136210500Y-117072600I0J-237500D01*
G01*
X136210500Y-117547600D01*
G75*
G02*
X135973000Y-117785100I-237500J0D01*
G01*
X135473000Y-117785100D01*
G75*
G02*
X135235500Y-117547600I0J237500D01*
G01*
G37*
%TD*%
D11*
%TO.C,BUTTON2*%
X109359600Y-117515200D03*
X101409600Y-117515200D03*
X109359600Y-113015200D03*
X101409600Y-113015200D03*
%TD*%
D12*
%TO.C,SHIFT_1*%
X137096500Y-126733500D03*
X138366500Y-126733500D03*
X139636500Y-126733500D03*
X140906500Y-126733500D03*
X142176500Y-126733500D03*
X143446500Y-126733500D03*
X144716500Y-126733500D03*
X145986500Y-126733500D03*
X145986500Y-120586700D03*
X144716500Y-120586700D03*
X143446500Y-120586700D03*
X142176500Y-120586700D03*
X140906500Y-120586700D03*
X139636500Y-120586700D03*
X138366500Y-120586700D03*
X137096500Y-120586700D03*
%TD*%
D13*
%TO.C,C1*%
X112100000Y-79418600D03*
X112100000Y-83431400D03*
%TD*%
%TO.C,C8*%
G36*
G01*
X135175000Y-121885100D02*
X134700000Y-121885100D01*
G75*
G02*
X134462500Y-121647600I0J237500D01*
G01*
X134462500Y-121147600D01*
G75*
G02*
X134700000Y-120910100I237500J0D01*
G01*
X135175000Y-120910100D01*
G75*
G02*
X135412500Y-121147600I0J-237500D01*
G01*
X135412500Y-121647600D01*
G75*
G02*
X135175000Y-121885100I-237500J0D01*
G01*
G37*
G36*
G01*
X135175000Y-120060100D02*
X134700000Y-120060100D01*
G75*
G02*
X134462500Y-119822600I0J237500D01*
G01*
X134462500Y-119322600D01*
G75*
G02*
X134700000Y-119085100I237500J0D01*
G01*
X135175000Y-119085100D01*
G75*
G02*
X135412500Y-119322600I0J-237500D01*
G01*
X135412500Y-119822600D01*
G75*
G02*
X135175000Y-120060100I-237500J0D01*
G01*
G37*
%TD*%
%TO.C,R14*%
G36*
G01*
X132210000Y-102226100D02*
X132210000Y-102701100D01*
G75*
G02*
X131972500Y-102938600I-237500J0D01*
G01*
X131472500Y-102938600D01*
G75*
G02*
X131235000Y-102701100I0J237500D01*
G01*
X131235000Y-102226100D01*
G75*
G02*
X131472500Y-101988600I237500J0D01*
G01*
X131972500Y-101988600D01*
G75*
G02*
X132210000Y-102226100I0J-237500D01*
G01*
G37*
G36*
G01*
X130385000Y-102226100D02*
X130385000Y-102701100D01*
G75*
G02*
X130147500Y-102938600I-237500J0D01*
G01*
X129647500Y-102938600D01*
G75*
G02*
X129410000Y-102701100I0J237500D01*
G01*
X129410000Y-102226100D01*
G75*
G02*
X129647500Y-101988600I237500J0D01*
G01*
X130147500Y-101988600D01*
G75*
G02*
X130385000Y-102226100I0J-237500D01*
G01*
G37*
%TD*%
D14*
%TO.C,LED2*%
X112238500Y-99403100D03*
X110138500Y-99403100D03*
%TD*%
D11*
%TO.C,BUTTON1*%
X114769800Y-109260200D03*
X106819800Y-109260200D03*
X114769800Y-104760200D03*
X106819800Y-104760200D03*
%TD*%
%TO.C,R15*%
G36*
G01*
X135924300Y-105375100D02*
X135449300Y-105375100D01*
G75*
G02*
X135211800Y-105137600I0J237500D01*
G01*
X135211800Y-104637600D01*
G75*
G02*
X135449300Y-104400100I237500J0D01*
G01*
X135924300Y-104400100D01*
G75*
G02*
X136161800Y-104637600I0J-237500D01*
G01*
X136161800Y-105137600D01*
G75*
G02*
X135924300Y-105375100I-237500J0D01*
G01*
G37*
G36*
G01*
X135924300Y-103550100D02*
X135449300Y-103550100D01*
G75*
G02*
X135211800Y-103312600I0J237500D01*
G01*
X135211800Y-102812600D01*
G75*
G02*
X135449300Y-102575100I237500J0D01*
G01*
X135924300Y-102575100D01*
G75*
G02*
X136161800Y-102812600I0J-237500D01*
G01*
X136161800Y-103312600D01*
G75*
G02*
X135924300Y-103550100I-237500J0D01*
G01*
G37*
%TD*%
%TO.C,R4*%
G36*
G01*
X122398800Y-132654700D02*
X121923800Y-132654700D01*
G75*
G02*
X121686300Y-132417200I0J237500D01*
G01*
X121686300Y-131917200D01*
G75*
G02*
X121923800Y-131679700I237500J0D01*
G01*
X122398800Y-131679700D01*
G75*
G02*
X122636300Y-131917200I0J-237500D01*
G01*
X122636300Y-132417200D01*
G75*
G02*
X122398800Y-132654700I-237500J0D01*
G01*
G37*
G36*
G01*
X122398800Y-130829700D02*
X121923800Y-130829700D01*
G75*
G02*
X121686300Y-130592200I0J237500D01*
G01*
X121686300Y-130092200D01*
G75*
G02*
X121923800Y-129854700I237500J0D01*
G01*
X122398800Y-129854700D01*
G75*
G02*
X122636300Y-130092200I0J-237500D01*
G01*
X122636300Y-130592200D01*
G75*
G02*
X122398800Y-130829700I-237500J0D01*
G01*
G37*
%TD*%
%TO.C,R32*%
G36*
G01*
X112010600Y-86141500D02*
X112010600Y-85666500D01*
G75*
G02*
X112248100Y-85429000I237500J0D01*
G01*
X112748100Y-85429000D01*
G75*
G02*
X112985600Y-85666500I0J-237500D01*
G01*
X112985600Y-86141500D01*
G75*
G02*
X112748100Y-86379000I-237500J0D01*
G01*
X112248100Y-86379000D01*
G75*
G02*
X112010600Y-86141500I0J237500D01*
G01*
G37*
G36*
G01*
X113835600Y-86141500D02*
X113835600Y-85666500D01*
G75*
G02*
X114073100Y-85429000I237500J0D01*
G01*
X114573100Y-85429000D01*
G75*
G02*
X114810600Y-85666500I0J-237500D01*
G01*
X114810600Y-86141500D01*
G75*
G02*
X114573100Y-86379000I-237500J0D01*
G01*
X114073100Y-86379000D01*
G75*
G02*
X113835600Y-86141500I0J237500D01*
G01*
G37*
%TD*%
%TO.C,R33*%
G36*
G01*
X111254600Y-85666500D02*
X111254600Y-86141500D01*
G75*
G02*
X111017100Y-86379000I-237500J0D01*
G01*
X110517100Y-86379000D01*
G75*
G02*
X110279600Y-86141500I0J237500D01*
G01*
X110279600Y-85666500D01*
G75*
G02*
X110517100Y-85429000I237500J0D01*
G01*
X111017100Y-85429000D01*
G75*
G02*
X111254600Y-85666500I0J-237500D01*
G01*
G37*
G36*
G01*
X109429600Y-85666500D02*
X109429600Y-86141500D01*
G75*
G02*
X109192100Y-86379000I-237500J0D01*
G01*
X108692100Y-86379000D01*
G75*
G02*
X108454600Y-86141500I0J237500D01*
G01*
X108454600Y-85666500D01*
G75*
G02*
X108692100Y-85429000I237500J0D01*
G01*
X109192100Y-85429000D01*
G75*
G02*
X109429600Y-85666500I0J-237500D01*
G01*
G37*
%TD*%
D14*
%TO.C,LED1*%
X112238500Y-97498100D03*
X110138500Y-97498100D03*
%TD*%
D13*
%TO.C,C2*%
X118325000Y-79443600D03*
X118325000Y-83456400D03*
%TD*%
%TO.C,C23*%
G36*
G01*
X132089700Y-107463800D02*
X132089700Y-106988800D01*
G75*
G02*
X132327200Y-106751300I237500J0D01*
G01*
X132827200Y-106751300D01*
G75*
G02*
X133064700Y-106988800I0J-237500D01*
G01*
X133064700Y-107463800D01*
G75*
G02*
X132827200Y-107701300I-237500J0D01*
G01*
X132327200Y-107701300D01*
G75*
G02*
X132089700Y-107463800I0J237500D01*
G01*
G37*
G36*
G01*
X133914700Y-107463800D02*
X133914700Y-106988800D01*
G75*
G02*
X134152200Y-106751300I237500J0D01*
G01*
X134652200Y-106751300D01*
G75*
G02*
X134889700Y-106988800I0J-237500D01*
G01*
X134889700Y-107463800D01*
G75*
G02*
X134652200Y-107701300I-237500J0D01*
G01*
X134152200Y-107701300D01*
G75*
G02*
X133914700Y-107463800I0J237500D01*
G01*
G37*
%TD*%
%TO.C,C3*%
G36*
G01*
X118799900Y-107271900D02*
X118799900Y-107746900D01*
G75*
G02*
X118562400Y-107984400I-237500J0D01*
G01*
X118062400Y-107984400D01*
G75*
G02*
X117824900Y-107746900I0J237500D01*
G01*
X117824900Y-107271900D01*
G75*
G02*
X118062400Y-107034400I237500J0D01*
G01*
X118562400Y-107034400D01*
G75*
G02*
X118799900Y-107271900I0J-237500D01*
G01*
G37*
G36*
G01*
X116974900Y-107271900D02*
X116974900Y-107746900D01*
G75*
G02*
X116737400Y-107984400I-237500J0D01*
G01*
X116237400Y-107984400D01*
G75*
G02*
X115999900Y-107746900I0J237500D01*
G01*
X115999900Y-107271900D01*
G75*
G02*
X116237400Y-107034400I237500J0D01*
G01*
X116737400Y-107034400D01*
G75*
G02*
X116974900Y-107271900I0J-237500D01*
G01*
G37*
%TD*%
%TO.C,R28*%
G36*
G01*
X135683000Y-114646100D02*
X135208000Y-114646100D01*
G75*
G02*
X134970500Y-114408600I0J237500D01*
G01*
X134970500Y-113908600D01*
G75*
G02*
X135208000Y-113671100I237500J0D01*
G01*
X135683000Y-113671100D01*
G75*
G02*
X135920500Y-113908600I0J-237500D01*
G01*
X135920500Y-114408600D01*
G75*
G02*
X135683000Y-114646100I-237500J0D01*
G01*
G37*
G36*
G01*
X135683000Y-112821100D02*
X135208000Y-112821100D01*
G75*
G02*
X134970500Y-112583600I0J237500D01*
G01*
X134970500Y-112083600D01*
G75*
G02*
X135208000Y-111846100I237500J0D01*
G01*
X135683000Y-111846100D01*
G75*
G02*
X135920500Y-112083600I0J-237500D01*
G01*
X135920500Y-112583600D01*
G75*
G02*
X135683000Y-112821100I-237500J0D01*
G01*
G37*
%TD*%
D15*
%TO.C,CR1220_BATTERY0*%
X137477500Y-83147100D03*
D16*
X129857500Y-83147100D03*
X145097500Y-83147100D03*
%TD*%
%TO.C,R6*%
G36*
G01*
X115937500Y-96975000D02*
X115462500Y-96975000D01*
G75*
G02*
X115225000Y-96737500I0J237500D01*
G01*
X115225000Y-96237500D01*
G75*
G02*
X115462500Y-96000000I237500J0D01*
G01*
X115937500Y-96000000D01*
G75*
G02*
X116175000Y-96237500I0J-237500D01*
G01*
X116175000Y-96737500D01*
G75*
G02*
X115937500Y-96975000I-237500J0D01*
G01*
G37*
G36*
G01*
X115937500Y-95150000D02*
X115462500Y-95150000D01*
G75*
G02*
X115225000Y-94912500I0J237500D01*
G01*
X115225000Y-94412500D01*
G75*
G02*
X115462500Y-94175000I237500J0D01*
G01*
X115937500Y-94175000D01*
G75*
G02*
X116175000Y-94412500I0J-237500D01*
G01*
X116175000Y-94912500D01*
G75*
G02*
X115937500Y-95150000I-237500J0D01*
G01*
G37*
%TD*%
%TO.C,R1*%
G36*
G01*
X116958100Y-99946000D02*
X117433100Y-99946000D01*
G75*
G02*
X117670600Y-100183500I0J-237500D01*
G01*
X117670600Y-100683500D01*
G75*
G02*
X117433100Y-100921000I-237500J0D01*
G01*
X116958100Y-100921000D01*
G75*
G02*
X116720600Y-100683500I0J237500D01*
G01*
X116720600Y-100183500D01*
G75*
G02*
X116958100Y-99946000I237500J0D01*
G01*
G37*
G36*
G01*
X116958100Y-101771000D02*
X117433100Y-101771000D01*
G75*
G02*
X117670600Y-102008500I0J-237500D01*
G01*
X117670600Y-102508500D01*
G75*
G02*
X117433100Y-102746000I-237500J0D01*
G01*
X116958100Y-102746000D01*
G75*
G02*
X116720600Y-102508500I0J237500D01*
G01*
X116720600Y-102008500D01*
G75*
G02*
X116958100Y-101771000I237500J0D01*
G01*
G37*
%TD*%
%TO.C,R29*%
G36*
G01*
X120361700Y-90167000D02*
X120836700Y-90167000D01*
G75*
G02*
X121074200Y-90404500I0J-237500D01*
G01*
X121074200Y-90904500D01*
G75*
G02*
X120836700Y-91142000I-237500J0D01*
G01*
X120361700Y-91142000D01*
G75*
G02*
X120124200Y-90904500I0J237500D01*
G01*
X120124200Y-90404500D01*
G75*
G02*
X120361700Y-90167000I237500J0D01*
G01*
G37*
G36*
G01*
X120361700Y-91992000D02*
X120836700Y-91992000D01*
G75*
G02*
X121074200Y-92229500I0J-237500D01*
G01*
X121074200Y-92729500D01*
G75*
G02*
X120836700Y-92967000I-237500J0D01*
G01*
X120361700Y-92967000D01*
G75*
G02*
X120124200Y-92729500I0J237500D01*
G01*
X120124200Y-92229500D01*
G75*
G02*
X120361700Y-91992000I237500J0D01*
G01*
G37*
%TD*%
D17*
%TO.C,PFET-0*%
X109850000Y-87750000D03*
X107950000Y-87750000D03*
X108900000Y-89850000D03*
%TD*%
%TO.C,C6*%
G36*
G01*
X137588000Y-113757100D02*
X137113000Y-113757100D01*
G75*
G02*
X136875500Y-113519600I0J237500D01*
G01*
X136875500Y-113019600D01*
G75*
G02*
X137113000Y-112782100I237500J0D01*
G01*
X137588000Y-112782100D01*
G75*
G02*
X137825500Y-113019600I0J-237500D01*
G01*
X137825500Y-113519600D01*
G75*
G02*
X137588000Y-113757100I-237500J0D01*
G01*
G37*
G36*
G01*
X137588000Y-111932100D02*
X137113000Y-111932100D01*
G75*
G02*
X136875500Y-111694600I0J237500D01*
G01*
X136875500Y-111194600D01*
G75*
G02*
X137113000Y-110957100I237500J0D01*
G01*
X137588000Y-110957100D01*
G75*
G02*
X137825500Y-111194600I0J-237500D01*
G01*
X137825500Y-111694600D01*
G75*
G02*
X137588000Y-111932100I-237500J0D01*
G01*
G37*
%TD*%
%TO.C,R5*%
G36*
G01*
X124387600Y-123911100D02*
X124862600Y-123911100D01*
G75*
G02*
X125100100Y-124148600I0J-237500D01*
G01*
X125100100Y-124648600D01*
G75*
G02*
X124862600Y-124886100I-237500J0D01*
G01*
X124387600Y-124886100D01*
G75*
G02*
X124150100Y-124648600I0J237500D01*
G01*
X124150100Y-124148600D01*
G75*
G02*
X124387600Y-123911100I237500J0D01*
G01*
G37*
G36*
G01*
X124387600Y-125736100D02*
X124862600Y-125736100D01*
G75*
G02*
X125100100Y-125973600I0J-237500D01*
G01*
X125100100Y-126473600D01*
G75*
G02*
X124862600Y-126711100I-237500J0D01*
G01*
X124387600Y-126711100D01*
G75*
G02*
X124150100Y-126473600I0J237500D01*
G01*
X124150100Y-125973600D01*
G75*
G02*
X124387600Y-125736100I237500J0D01*
G01*
G37*
%TD*%
%TO.C,R7*%
G36*
G01*
X118212500Y-96900000D02*
X117737500Y-96900000D01*
G75*
G02*
X117500000Y-96662500I0J237500D01*
G01*
X117500000Y-96162500D01*
G75*
G02*
X117737500Y-95925000I237500J0D01*
G01*
X118212500Y-95925000D01*
G75*
G02*
X118450000Y-96162500I0J-237500D01*
G01*
X118450000Y-96662500D01*
G75*
G02*
X118212500Y-96900000I-237500J0D01*
G01*
G37*
G36*
G01*
X118212500Y-95075000D02*
X117737500Y-95075000D01*
G75*
G02*
X117500000Y-94837500I0J237500D01*
G01*
X117500000Y-94337500D01*
G75*
G02*
X117737500Y-94100000I237500J0D01*
G01*
X118212500Y-94100000D01*
G75*
G02*
X118450000Y-94337500I0J-237500D01*
G01*
X118450000Y-94837500D01*
G75*
G02*
X118212500Y-95075000I-237500J0D01*
G01*
G37*
%TD*%
D12*
%TO.C,SHIFT_0*%
X137350500Y-102349500D03*
X138620500Y-102349500D03*
X139890500Y-102349500D03*
X141160500Y-102349500D03*
X142430500Y-102349500D03*
X143700500Y-102349500D03*
X144970500Y-102349500D03*
X146240500Y-102349500D03*
X146240500Y-96202700D03*
X144970500Y-96202700D03*
X143700500Y-96202700D03*
X142430500Y-96202700D03*
X141160500Y-96202700D03*
X139890500Y-96202700D03*
X138620500Y-96202700D03*
X137350500Y-96202700D03*
%TD*%
%TO.C,R8*%
G36*
G01*
X120212500Y-96875000D02*
X119737500Y-96875000D01*
G75*
G02*
X119500000Y-96637500I0J237500D01*
G01*
X119500000Y-96137500D01*
G75*
G02*
X119737500Y-95900000I237500J0D01*
G01*
X120212500Y-95900000D01*
G75*
G02*
X120450000Y-96137500I0J-237500D01*
G01*
X120450000Y-96637500D01*
G75*
G02*
X120212500Y-96875000I-237500J0D01*
G01*
G37*
G36*
G01*
X120212500Y-95050000D02*
X119737500Y-95050000D01*
G75*
G02*
X119500000Y-94812500I0J237500D01*
G01*
X119500000Y-94312500D01*
G75*
G02*
X119737500Y-94075000I237500J0D01*
G01*
X120212500Y-94075000D01*
G75*
G02*
X120450000Y-94312500I0J-237500D01*
G01*
X120450000Y-94812500D01*
G75*
G02*
X120212500Y-95050000I-237500J0D01*
G01*
G37*
%TD*%
%TO.C,C9*%
G36*
G01*
X136051300Y-101831600D02*
X135576300Y-101831600D01*
G75*
G02*
X135338800Y-101594100I0J237500D01*
G01*
X135338800Y-101094100D01*
G75*
G02*
X135576300Y-100856600I237500J0D01*
G01*
X136051300Y-100856600D01*
G75*
G02*
X136288800Y-101094100I0J-237500D01*
G01*
X136288800Y-101594100D01*
G75*
G02*
X136051300Y-101831600I-237500J0D01*
G01*
G37*
G36*
G01*
X136051300Y-100006600D02*
X135576300Y-100006600D01*
G75*
G02*
X135338800Y-99769100I0J237500D01*
G01*
X135338800Y-99269100D01*
G75*
G02*
X135576300Y-99031600I237500J0D01*
G01*
X136051300Y-99031600D01*
G75*
G02*
X136288800Y-99269100I0J-237500D01*
G01*
X136288800Y-99769100D01*
G75*
G02*
X136051300Y-100006600I-237500J0D01*
G01*
G37*
%TD*%
D18*
%TO.C,RESET0*%
X128211500Y-130923900D03*
X128211500Y-124523900D03*
X132011500Y-130923900D03*
X132011500Y-124523900D03*
%TD*%
D19*
%TO.C,BJT0*%
X117850000Y-87800000D03*
X115950000Y-87800000D03*
X116900000Y-90000000D03*
%TD*%
%TO.C,C4*%
G36*
G01*
X121492000Y-126197100D02*
X121967000Y-126197100D01*
G75*
G02*
X122204500Y-126434600I0J-237500D01*
G01*
X122204500Y-126934600D01*
G75*
G02*
X121967000Y-127172100I-237500J0D01*
G01*
X121492000Y-127172100D01*
G75*
G02*
X121254500Y-126934600I0J237500D01*
G01*
X121254500Y-126434600D01*
G75*
G02*
X121492000Y-126197100I237500J0D01*
G01*
G37*
G36*
G01*
X121492000Y-128022100D02*
X121967000Y-128022100D01*
G75*
G02*
X122204500Y-128259600I0J-237500D01*
G01*
X122204500Y-128759600D01*
G75*
G02*
X121967000Y-128997100I-237500J0D01*
G01*
X121492000Y-128997100D01*
G75*
G02*
X121254500Y-128759600I0J237500D01*
G01*
X121254500Y-128259600D01*
G75*
G02*
X121492000Y-128022100I237500J0D01*
G01*
G37*
%TD*%
D20*
%TO.C,INDUCTOR0*%
X132614300Y-110096500D03*
X134314300Y-110096500D03*
%TD*%
%TO.C,R30*%
G36*
G01*
X113987500Y-90100000D02*
X114462500Y-90100000D01*
G75*
G02*
X114700000Y-90337500I0J-237500D01*
G01*
X114700000Y-90837500D01*
G75*
G02*
X114462500Y-91075000I-237500J0D01*
G01*
X113987500Y-91075000D01*
G75*
G02*
X113750000Y-90837500I0J237500D01*
G01*
X113750000Y-90337500D01*
G75*
G02*
X113987500Y-90100000I237500J0D01*
G01*
G37*
G36*
G01*
X113987500Y-91925000D02*
X114462500Y-91925000D01*
G75*
G02*
X114700000Y-92162500I0J-237500D01*
G01*
X114700000Y-92662500D01*
G75*
G02*
X114462500Y-92900000I-237500J0D01*
G01*
X113987500Y-92900000D01*
G75*
G02*
X113750000Y-92662500I0J237500D01*
G01*
X113750000Y-92162500D01*
G75*
G02*
X113987500Y-91925000I237500J0D01*
G01*
G37*
%TD*%
%TO.C,C5*%
G36*
G01*
X110855300Y-95144800D02*
X110855300Y-94669800D01*
G75*
G02*
X111092800Y-94432300I237500J0D01*
G01*
X111592800Y-94432300D01*
G75*
G02*
X111830300Y-94669800I0J-237500D01*
G01*
X111830300Y-95144800D01*
G75*
G02*
X111592800Y-95382300I-237500J0D01*
G01*
X111092800Y-95382300D01*
G75*
G02*
X110855300Y-95144800I0J237500D01*
G01*
G37*
G36*
G01*
X112680300Y-95144800D02*
X112680300Y-94669800D01*
G75*
G02*
X112917800Y-94432300I237500J0D01*
G01*
X113417800Y-94432300D01*
G75*
G02*
X113655300Y-94669800I0J-237500D01*
G01*
X113655300Y-95144800D01*
G75*
G02*
X113417800Y-95382300I-237500J0D01*
G01*
X112917800Y-95382300D01*
G75*
G02*
X112680300Y-95144800I0J237500D01*
G01*
G37*
%TD*%
%TO.C,C10*%
G36*
G01*
X116793000Y-126197100D02*
X117268000Y-126197100D01*
G75*
G02*
X117505500Y-126434600I0J-237500D01*
G01*
X117505500Y-126934600D01*
G75*
G02*
X117268000Y-127172100I-237500J0D01*
G01*
X116793000Y-127172100D01*
G75*
G02*
X116555500Y-126934600I0J237500D01*
G01*
X116555500Y-126434600D01*
G75*
G02*
X116793000Y-126197100I237500J0D01*
G01*
G37*
G36*
G01*
X116793000Y-128022100D02*
X117268000Y-128022100D01*
G75*
G02*
X117505500Y-128259600I0J-237500D01*
G01*
X117505500Y-128759600D01*
G75*
G02*
X117268000Y-128997100I-237500J0D01*
G01*
X116793000Y-128997100D01*
G75*
G02*
X116555500Y-128759600I0J237500D01*
G01*
X116555500Y-128259600D01*
G75*
G02*
X116793000Y-128022100I237500J0D01*
G01*
G37*
%TD*%
%TO.C,C7*%
G36*
G01*
X123782400Y-99076900D02*
X123782400Y-99551900D01*
G75*
G02*
X123544900Y-99789400I-237500J0D01*
G01*
X123044900Y-99789400D01*
G75*
G02*
X122807400Y-99551900I0J237500D01*
G01*
X122807400Y-99076900D01*
G75*
G02*
X123044900Y-98839400I237500J0D01*
G01*
X123544900Y-98839400D01*
G75*
G02*
X123782400Y-99076900I0J-237500D01*
G01*
G37*
G36*
G01*
X121957400Y-99076900D02*
X121957400Y-99551900D01*
G75*
G02*
X121719900Y-99789400I-237500J0D01*
G01*
X121219900Y-99789400D01*
G75*
G02*
X120982400Y-99551900I0J237500D01*
G01*
X120982400Y-99076900D01*
G75*
G02*
X121219900Y-98839400I237500J0D01*
G01*
X121719900Y-98839400D01*
G75*
G02*
X121957400Y-99076900I0J-237500D01*
G01*
G37*
%TD*%
%TO.C,R2*%
G36*
G01*
X114316500Y-99971400D02*
X114791500Y-99971400D01*
G75*
G02*
X115029000Y-100208900I0J-237500D01*
G01*
X115029000Y-100708900D01*
G75*
G02*
X114791500Y-100946400I-237500J0D01*
G01*
X114316500Y-100946400D01*
G75*
G02*
X114079000Y-100708900I0J237500D01*
G01*
X114079000Y-100208900D01*
G75*
G02*
X114316500Y-99971400I237500J0D01*
G01*
G37*
G36*
G01*
X114316500Y-101796400D02*
X114791500Y-101796400D01*
G75*
G02*
X115029000Y-102033900I0J-237500D01*
G01*
X115029000Y-102533900D01*
G75*
G02*
X114791500Y-102771400I-237500J0D01*
G01*
X114316500Y-102771400D01*
G75*
G02*
X114079000Y-102533900I0J237500D01*
G01*
X114079000Y-102033900D01*
G75*
G02*
X114316500Y-101796400I237500J0D01*
G01*
G37*
%TD*%
%TO.C,U3*%
G36*
G01*
X126242400Y-94409400D02*
X126242400Y-94109400D01*
G75*
G02*
X126392400Y-93959400I150000J0D01*
G01*
X128042400Y-93959400D01*
G75*
G02*
X128192400Y-94109400I0J-150000D01*
G01*
X128192400Y-94409400D01*
G75*
G02*
X128042400Y-94559400I-150000J0D01*
G01*
X126392400Y-94559400D01*
G75*
G02*
X126242400Y-94409400I0J150000D01*
G01*
G37*
G36*
G01*
X126242400Y-95679400D02*
X126242400Y-95379400D01*
G75*
G02*
X126392400Y-95229400I150000J0D01*
G01*
X128042400Y-95229400D01*
G75*
G02*
X128192400Y-95379400I0J-150000D01*
G01*
X128192400Y-95679400D01*
G75*
G02*
X128042400Y-95829400I-150000J0D01*
G01*
X126392400Y-95829400D01*
G75*
G02*
X126242400Y-95679400I0J150000D01*
G01*
G37*
G36*
G01*
X126242400Y-96949400D02*
X126242400Y-96649400D01*
G75*
G02*
X126392400Y-96499400I150000J0D01*
G01*
X128042400Y-96499400D01*
G75*
G02*
X128192400Y-96649400I0J-150000D01*
G01*
X128192400Y-96949400D01*
G75*
G02*
X128042400Y-97099400I-150000J0D01*
G01*
X126392400Y-97099400D01*
G75*
G02*
X126242400Y-96949400I0J150000D01*
G01*
G37*
G36*
G01*
X126242400Y-98219400D02*
X126242400Y-97919400D01*
G75*
G02*
X126392400Y-97769400I150000J0D01*
G01*
X128042400Y-97769400D01*
G75*
G02*
X128192400Y-97919400I0J-150000D01*
G01*
X128192400Y-98219400D01*
G75*
G02*
X128042400Y-98369400I-150000J0D01*
G01*
X126392400Y-98369400D01*
G75*
G02*
X126242400Y-98219400I0J150000D01*
G01*
G37*
G36*
G01*
X131192400Y-98219400D02*
X131192400Y-97919400D01*
G75*
G02*
X131342400Y-97769400I150000J0D01*
G01*
X132992400Y-97769400D01*
G75*
G02*
X133142400Y-97919400I0J-150000D01*
G01*
X133142400Y-98219400D01*
G75*
G02*
X132992400Y-98369400I-150000J0D01*
G01*
X131342400Y-98369400D01*
G75*
G02*
X131192400Y-98219400I0J150000D01*
G01*
G37*
G36*
G01*
X131192400Y-96949400D02*
X131192400Y-96649400D01*
G75*
G02*
X131342400Y-96499400I150000J0D01*
G01*
X132992400Y-96499400D01*
G75*
G02*
X133142400Y-96649400I0J-150000D01*
G01*
X133142400Y-96949400D01*
G75*
G02*
X132992400Y-97099400I-150000J0D01*
G01*
X131342400Y-97099400D01*
G75*
G02*
X131192400Y-96949400I0J150000D01*
G01*
G37*
G36*
G01*
X131192400Y-95679400D02*
X131192400Y-95379400D01*
G75*
G02*
X131342400Y-95229400I150000J0D01*
G01*
X132992400Y-95229400D01*
G75*
G02*
X133142400Y-95379400I0J-150000D01*
G01*
X133142400Y-95679400D01*
G75*
G02*
X132992400Y-95829400I-150000J0D01*
G01*
X131342400Y-95829400D01*
G75*
G02*
X131192400Y-95679400I0J150000D01*
G01*
G37*
G36*
G01*
X131192400Y-94409400D02*
X131192400Y-94109400D01*
G75*
G02*
X131342400Y-93959400I150000J0D01*
G01*
X132992400Y-93959400D01*
G75*
G02*
X133142400Y-94109400I0J-150000D01*
G01*
X133142400Y-94409400D01*
G75*
G02*
X132992400Y-94559400I-150000J0D01*
G01*
X131342400Y-94559400D01*
G75*
G02*
X131192400Y-94409400I0J150000D01*
G01*
G37*
%TD*%
%TO.C,U$2*%
G36*
G01*
X146032500Y-108376100D02*
X146232500Y-108376100D01*
G75*
G02*
X146332500Y-108476100I0J-100000D01*
G01*
X146332500Y-109751100D01*
G75*
G02*
X146232500Y-109851100I-100000J0D01*
G01*
X146032500Y-109851100D01*
G75*
G02*
X145932500Y-109751100I0J100000D01*
G01*
X145932500Y-108476100D01*
G75*
G02*
X146032500Y-108376100I100000J0D01*
G01*
G37*
G36*
G01*
X145382500Y-108376100D02*
X145582500Y-108376100D01*
G75*
G02*
X145682500Y-108476100I0J-100000D01*
G01*
X145682500Y-109751100D01*
G75*
G02*
X145582500Y-109851100I-100000J0D01*
G01*
X145382500Y-109851100D01*
G75*
G02*
X145282500Y-109751100I0J100000D01*
G01*
X145282500Y-108476100D01*
G75*
G02*
X145382500Y-108376100I100000J0D01*
G01*
G37*
G36*
G01*
X144732500Y-108376100D02*
X144932500Y-108376100D01*
G75*
G02*
X145032500Y-108476100I0J-100000D01*
G01*
X145032500Y-109751100D01*
G75*
G02*
X144932500Y-109851100I-100000J0D01*
G01*
X144732500Y-109851100D01*
G75*
G02*
X144632500Y-109751100I0J100000D01*
G01*
X144632500Y-108476100D01*
G75*
G02*
X144732500Y-108376100I100000J0D01*
G01*
G37*
G36*
G01*
X144082500Y-108376100D02*
X144282500Y-108376100D01*
G75*
G02*
X144382500Y-108476100I0J-100000D01*
G01*
X144382500Y-109751100D01*
G75*
G02*
X144282500Y-109851100I-100000J0D01*
G01*
X144082500Y-109851100D01*
G75*
G02*
X143982500Y-109751100I0J100000D01*
G01*
X143982500Y-108476100D01*
G75*
G02*
X144082500Y-108376100I100000J0D01*
G01*
G37*
G36*
G01*
X143432500Y-108376100D02*
X143632500Y-108376100D01*
G75*
G02*
X143732500Y-108476100I0J-100000D01*
G01*
X143732500Y-109751100D01*
G75*
G02*
X143632500Y-109851100I-100000J0D01*
G01*
X143432500Y-109851100D01*
G75*
G02*
X143332500Y-109751100I0J100000D01*
G01*
X143332500Y-108476100D01*
G75*
G02*
X143432500Y-108376100I100000J0D01*
G01*
G37*
G36*
G01*
X142782500Y-108376100D02*
X142982500Y-108376100D01*
G75*
G02*
X143082500Y-108476100I0J-100000D01*
G01*
X143082500Y-109751100D01*
G75*
G02*
X142982500Y-109851100I-100000J0D01*
G01*
X142782500Y-109851100D01*
G75*
G02*
X142682500Y-109751100I0J100000D01*
G01*
X142682500Y-108476100D01*
G75*
G02*
X142782500Y-108376100I100000J0D01*
G01*
G37*
G36*
G01*
X142132500Y-108376100D02*
X142332500Y-108376100D01*
G75*
G02*
X142432500Y-108476100I0J-100000D01*
G01*
X142432500Y-109751100D01*
G75*
G02*
X142332500Y-109851100I-100000J0D01*
G01*
X142132500Y-109851100D01*
G75*
G02*
X142032500Y-109751100I0J100000D01*
G01*
X142032500Y-108476100D01*
G75*
G02*
X142132500Y-108376100I100000J0D01*
G01*
G37*
G36*
G01*
X141482500Y-108376100D02*
X141682500Y-108376100D01*
G75*
G02*
X141782500Y-108476100I0J-100000D01*
G01*
X141782500Y-109751100D01*
G75*
G02*
X141682500Y-109851100I-100000J0D01*
G01*
X141482500Y-109851100D01*
G75*
G02*
X141382500Y-109751100I0J100000D01*
G01*
X141382500Y-108476100D01*
G75*
G02*
X141482500Y-108376100I100000J0D01*
G01*
G37*
G36*
G01*
X140832500Y-108376100D02*
X141032500Y-108376100D01*
G75*
G02*
X141132500Y-108476100I0J-100000D01*
G01*
X141132500Y-109751100D01*
G75*
G02*
X141032500Y-109851100I-100000J0D01*
G01*
X140832500Y-109851100D01*
G75*
G02*
X140732500Y-109751100I0J100000D01*
G01*
X140732500Y-108476100D01*
G75*
G02*
X140832500Y-108376100I100000J0D01*
G01*
G37*
G36*
G01*
X140182500Y-108376100D02*
X140382500Y-108376100D01*
G75*
G02*
X140482500Y-108476100I0J-100000D01*
G01*
X140482500Y-109751100D01*
G75*
G02*
X140382500Y-109851100I-100000J0D01*
G01*
X140182500Y-109851100D01*
G75*
G02*
X140082500Y-109751100I0J100000D01*
G01*
X140082500Y-108476100D01*
G75*
G02*
X140182500Y-108376100I100000J0D01*
G01*
G37*
G36*
G01*
X139532500Y-108376100D02*
X139732500Y-108376100D01*
G75*
G02*
X139832500Y-108476100I0J-100000D01*
G01*
X139832500Y-109751100D01*
G75*
G02*
X139732500Y-109851100I-100000J0D01*
G01*
X139532500Y-109851100D01*
G75*
G02*
X139432500Y-109751100I0J100000D01*
G01*
X139432500Y-108476100D01*
G75*
G02*
X139532500Y-108376100I100000J0D01*
G01*
G37*
G36*
G01*
X138882500Y-108376100D02*
X139082500Y-108376100D01*
G75*
G02*
X139182500Y-108476100I0J-100000D01*
G01*
X139182500Y-109751100D01*
G75*
G02*
X139082500Y-109851100I-100000J0D01*
G01*
X138882500Y-109851100D01*
G75*
G02*
X138782500Y-109751100I0J100000D01*
G01*
X138782500Y-108476100D01*
G75*
G02*
X138882500Y-108376100I100000J0D01*
G01*
G37*
G36*
G01*
X138882500Y-114101100D02*
X139082500Y-114101100D01*
G75*
G02*
X139182500Y-114201100I0J-100000D01*
G01*
X139182500Y-115476100D01*
G75*
G02*
X139082500Y-115576100I-100000J0D01*
G01*
X138882500Y-115576100D01*
G75*
G02*
X138782500Y-115476100I0J100000D01*
G01*
X138782500Y-114201100D01*
G75*
G02*
X138882500Y-114101100I100000J0D01*
G01*
G37*
G36*
G01*
X139532500Y-114101100D02*
X139732500Y-114101100D01*
G75*
G02*
X139832500Y-114201100I0J-100000D01*
G01*
X139832500Y-115476100D01*
G75*
G02*
X139732500Y-115576100I-100000J0D01*
G01*
X139532500Y-115576100D01*
G75*
G02*
X139432500Y-115476100I0J100000D01*
G01*
X139432500Y-114201100D01*
G75*
G02*
X139532500Y-114101100I100000J0D01*
G01*
G37*
G36*
G01*
X140182500Y-114101100D02*
X140382500Y-114101100D01*
G75*
G02*
X140482500Y-114201100I0J-100000D01*
G01*
X140482500Y-115476100D01*
G75*
G02*
X140382500Y-115576100I-100000J0D01*
G01*
X140182500Y-115576100D01*
G75*
G02*
X140082500Y-115476100I0J100000D01*
G01*
X140082500Y-114201100D01*
G75*
G02*
X140182500Y-114101100I100000J0D01*
G01*
G37*
G36*
G01*
X140832500Y-114101100D02*
X141032500Y-114101100D01*
G75*
G02*
X141132500Y-114201100I0J-100000D01*
G01*
X141132500Y-115476100D01*
G75*
G02*
X141032500Y-115576100I-100000J0D01*
G01*
X140832500Y-115576100D01*
G75*
G02*
X140732500Y-115476100I0J100000D01*
G01*
X140732500Y-114201100D01*
G75*
G02*
X140832500Y-114101100I100000J0D01*
G01*
G37*
G36*
G01*
X141482500Y-114101100D02*
X141682500Y-114101100D01*
G75*
G02*
X141782500Y-114201100I0J-100000D01*
G01*
X141782500Y-115476100D01*
G75*
G02*
X141682500Y-115576100I-100000J0D01*
G01*
X141482500Y-115576100D01*
G75*
G02*
X141382500Y-115476100I0J100000D01*
G01*
X141382500Y-114201100D01*
G75*
G02*
X141482500Y-114101100I100000J0D01*
G01*
G37*
G36*
G01*
X142132500Y-114101100D02*
X142332500Y-114101100D01*
G75*
G02*
X142432500Y-114201100I0J-100000D01*
G01*
X142432500Y-115476100D01*
G75*
G02*
X142332500Y-115576100I-100000J0D01*
G01*
X142132500Y-115576100D01*
G75*
G02*
X142032500Y-115476100I0J100000D01*
G01*
X142032500Y-114201100D01*
G75*
G02*
X142132500Y-114101100I100000J0D01*
G01*
G37*
G36*
G01*
X142782500Y-114101100D02*
X142982500Y-114101100D01*
G75*
G02*
X143082500Y-114201100I0J-100000D01*
G01*
X143082500Y-115476100D01*
G75*
G02*
X142982500Y-115576100I-100000J0D01*
G01*
X142782500Y-115576100D01*
G75*
G02*
X142682500Y-115476100I0J100000D01*
G01*
X142682500Y-114201100D01*
G75*
G02*
X142782500Y-114101100I100000J0D01*
G01*
G37*
G36*
G01*
X143432500Y-114101100D02*
X143632500Y-114101100D01*
G75*
G02*
X143732500Y-114201100I0J-100000D01*
G01*
X143732500Y-115476100D01*
G75*
G02*
X143632500Y-115576100I-100000J0D01*
G01*
X143432500Y-115576100D01*
G75*
G02*
X143332500Y-115476100I0J100000D01*
G01*
X143332500Y-114201100D01*
G75*
G02*
X143432500Y-114101100I100000J0D01*
G01*
G37*
G36*
G01*
X144082500Y-114101100D02*
X144282500Y-114101100D01*
G75*
G02*
X144382500Y-114201100I0J-100000D01*
G01*
X144382500Y-115476100D01*
G75*
G02*
X144282500Y-115576100I-100000J0D01*
G01*
X144082500Y-115576100D01*
G75*
G02*
X143982500Y-115476100I0J100000D01*
G01*
X143982500Y-114201100D01*
G75*
G02*
X144082500Y-114101100I100000J0D01*
G01*
G37*
G36*
G01*
X144732500Y-114101100D02*
X144932500Y-114101100D01*
G75*
G02*
X145032500Y-114201100I0J-100000D01*
G01*
X145032500Y-115476100D01*
G75*
G02*
X144932500Y-115576100I-100000J0D01*
G01*
X144732500Y-115576100D01*
G75*
G02*
X144632500Y-115476100I0J100000D01*
G01*
X144632500Y-114201100D01*
G75*
G02*
X144732500Y-114101100I100000J0D01*
G01*
G37*
G36*
G01*
X145382500Y-114101100D02*
X145582500Y-114101100D01*
G75*
G02*
X145682500Y-114201100I0J-100000D01*
G01*
X145682500Y-115476100D01*
G75*
G02*
X145582500Y-115576100I-100000J0D01*
G01*
X145382500Y-115576100D01*
G75*
G02*
X145282500Y-115476100I0J100000D01*
G01*
X145282500Y-114201100D01*
G75*
G02*
X145382500Y-114101100I100000J0D01*
G01*
G37*
G36*
G01*
X146032500Y-114101100D02*
X146232500Y-114101100D01*
G75*
G02*
X146332500Y-114201100I0J-100000D01*
G01*
X146332500Y-115476100D01*
G75*
G02*
X146232500Y-115576100I-100000J0D01*
G01*
X146032500Y-115576100D01*
G75*
G02*
X145932500Y-115476100I0J100000D01*
G01*
X145932500Y-114201100D01*
G75*
G02*
X146032500Y-114101100I100000J0D01*
G01*
G37*
%TD*%
%TO.C,U2*%
G36*
G01*
X125333700Y-101380000D02*
X124826300Y-101380000D01*
G75*
G02*
X124785000Y-101338700I0J41300D01*
G01*
X124785000Y-99371300D01*
G75*
G02*
X124826300Y-99330000I41300J0D01*
G01*
X125333700Y-99330000D01*
G75*
G02*
X125375000Y-99371300I0J-41300D01*
G01*
X125375000Y-101338700D01*
G75*
G02*
X125333700Y-101380000I-41300J0D01*
G01*
G37*
G36*
G01*
X126603700Y-101380000D02*
X126096300Y-101380000D01*
G75*
G02*
X126055000Y-101338700I0J41300D01*
G01*
X126055000Y-99371300D01*
G75*
G02*
X126096300Y-99330000I41300J0D01*
G01*
X126603700Y-99330000D01*
G75*
G02*
X126645000Y-99371300I0J-41300D01*
G01*
X126645000Y-101338700D01*
G75*
G02*
X126603700Y-101380000I-41300J0D01*
G01*
G37*
G36*
G01*
X127873700Y-101380000D02*
X127366300Y-101380000D01*
G75*
G02*
X127325000Y-101338700I0J41300D01*
G01*
X127325000Y-99371300D01*
G75*
G02*
X127366300Y-99330000I41300J0D01*
G01*
X127873700Y-99330000D01*
G75*
G02*
X127915000Y-99371300I0J-41300D01*
G01*
X127915000Y-101338700D01*
G75*
G02*
X127873700Y-101380000I-41300J0D01*
G01*
G37*
G36*
G01*
X129143700Y-101380000D02*
X128636300Y-101380000D01*
G75*
G02*
X128595000Y-101338700I0J41300D01*
G01*
X128595000Y-99371300D01*
G75*
G02*
X128636300Y-99330000I41300J0D01*
G01*
X129143700Y-99330000D01*
G75*
G02*
X129185000Y-99371300I0J-41300D01*
G01*
X129185000Y-101338700D01*
G75*
G02*
X129143700Y-101380000I-41300J0D01*
G01*
G37*
G36*
G01*
X130413700Y-101380000D02*
X129906300Y-101380000D01*
G75*
G02*
X129865000Y-101338700I0J41300D01*
G01*
X129865000Y-99371300D01*
G75*
G02*
X129906300Y-99330000I41300J0D01*
G01*
X130413700Y-99330000D01*
G75*
G02*
X130455000Y-99371300I0J-41300D01*
G01*
X130455000Y-101338700D01*
G75*
G02*
X130413700Y-101380000I-41300J0D01*
G01*
G37*
G36*
G01*
X131683700Y-101380000D02*
X131176300Y-101380000D01*
G75*
G02*
X131135000Y-101338700I0J41300D01*
G01*
X131135000Y-99371300D01*
G75*
G02*
X131176300Y-99330000I41300J0D01*
G01*
X131683700Y-99330000D01*
G75*
G02*
X131725000Y-99371300I0J-41300D01*
G01*
X131725000Y-101338700D01*
G75*
G02*
X131683700Y-101380000I-41300J0D01*
G01*
G37*
G36*
G01*
X132953700Y-101380000D02*
X132446300Y-101380000D01*
G75*
G02*
X132405000Y-101338700I0J41300D01*
G01*
X132405000Y-99371300D01*
G75*
G02*
X132446300Y-99330000I41300J0D01*
G01*
X132953700Y-99330000D01*
G75*
G02*
X132995000Y-99371300I0J-41300D01*
G01*
X132995000Y-101338700D01*
G75*
G02*
X132953700Y-101380000I-41300J0D01*
G01*
G37*
G36*
G01*
X134223700Y-101380000D02*
X133716300Y-101380000D01*
G75*
G02*
X133675000Y-101338700I0J41300D01*
G01*
X133675000Y-99371300D01*
G75*
G02*
X133716300Y-99330000I41300J0D01*
G01*
X134223700Y-99330000D01*
G75*
G02*
X134265000Y-99371300I0J-41300D01*
G01*
X134265000Y-101338700D01*
G75*
G02*
X134223700Y-101380000I-41300J0D01*
G01*
G37*
G36*
G01*
X134223700Y-92070000D02*
X133716300Y-92070000D01*
G75*
G02*
X133675000Y-92028700I0J41300D01*
G01*
X133675000Y-90061300D01*
G75*
G02*
X133716300Y-90020000I41300J0D01*
G01*
X134223700Y-90020000D01*
G75*
G02*
X134265000Y-90061300I0J-41300D01*
G01*
X134265000Y-92028700D01*
G75*
G02*
X134223700Y-92070000I-41300J0D01*
G01*
G37*
G36*
G01*
X132953700Y-92070000D02*
X132446300Y-92070000D01*
G75*
G02*
X132405000Y-92028700I0J41300D01*
G01*
X132405000Y-90061300D01*
G75*
G02*
X132446300Y-90020000I41300J0D01*
G01*
X132953700Y-90020000D01*
G75*
G02*
X132995000Y-90061300I0J-41300D01*
G01*
X132995000Y-92028700D01*
G75*
G02*
X132953700Y-92070000I-41300J0D01*
G01*
G37*
G36*
G01*
X131683700Y-92070000D02*
X131176300Y-92070000D01*
G75*
G02*
X131135000Y-92028700I0J41300D01*
G01*
X131135000Y-90061300D01*
G75*
G02*
X131176300Y-90020000I41300J0D01*
G01*
X131683700Y-90020000D01*
G75*
G02*
X131725000Y-90061300I0J-41300D01*
G01*
X131725000Y-92028700D01*
G75*
G02*
X131683700Y-92070000I-41300J0D01*
G01*
G37*
G36*
G01*
X130413700Y-92070000D02*
X129906300Y-92070000D01*
G75*
G02*
X129865000Y-92028700I0J41300D01*
G01*
X129865000Y-90061300D01*
G75*
G02*
X129906300Y-90020000I41300J0D01*
G01*
X130413700Y-90020000D01*
G75*
G02*
X130455000Y-90061300I0J-41300D01*
G01*
X130455000Y-92028700D01*
G75*
G02*
X130413700Y-92070000I-41300J0D01*
G01*
G37*
G36*
G01*
X129143700Y-92070000D02*
X128636300Y-92070000D01*
G75*
G02*
X128595000Y-92028700I0J41300D01*
G01*
X128595000Y-90061300D01*
G75*
G02*
X128636300Y-90020000I41300J0D01*
G01*
X129143700Y-90020000D01*
G75*
G02*
X129185000Y-90061300I0J-41300D01*
G01*
X129185000Y-92028700D01*
G75*
G02*
X129143700Y-92070000I-41300J0D01*
G01*
G37*
G36*
G01*
X127873700Y-92070000D02*
X127366300Y-92070000D01*
G75*
G02*
X127325000Y-92028700I0J41300D01*
G01*
X127325000Y-90061300D01*
G75*
G02*
X127366300Y-90020000I41300J0D01*
G01*
X127873700Y-90020000D01*
G75*
G02*
X127915000Y-90061300I0J-41300D01*
G01*
X127915000Y-92028700D01*
G75*
G02*
X127873700Y-92070000I-41300J0D01*
G01*
G37*
G36*
G01*
X126603700Y-92070000D02*
X126096300Y-92070000D01*
G75*
G02*
X126055000Y-92028700I0J41300D01*
G01*
X126055000Y-90061300D01*
G75*
G02*
X126096300Y-90020000I41300J0D01*
G01*
X126603700Y-90020000D01*
G75*
G02*
X126645000Y-90061300I0J-41300D01*
G01*
X126645000Y-92028700D01*
G75*
G02*
X126603700Y-92070000I-41300J0D01*
G01*
G37*
G36*
G01*
X125333700Y-92070000D02*
X124826300Y-92070000D01*
G75*
G02*
X124785000Y-92028700I0J41300D01*
G01*
X124785000Y-90061300D01*
G75*
G02*
X124826300Y-90020000I41300J0D01*
G01*
X125333700Y-90020000D01*
G75*
G02*
X125375000Y-90061300I0J-41300D01*
G01*
X125375000Y-92028700D01*
G75*
G02*
X125333700Y-92070000I-41300J0D01*
G01*
G37*
%TD*%
D10*
%TO.C,U1*%
X121119900Y-105112100D03*
X121119900Y-105912100D03*
X121119900Y-106712100D03*
X121119900Y-107512100D03*
X121119900Y-108312100D03*
X121119900Y-109112100D03*
X121119900Y-109912100D03*
X121119900Y-110712100D03*
D21*
X122612500Y-112204700D03*
X123412500Y-112204700D03*
X124212500Y-112204700D03*
X125012500Y-112204700D03*
X125812500Y-112204700D03*
X126612500Y-112204700D03*
X127412500Y-112204700D03*
X128212500Y-112204700D03*
D10*
X129705100Y-110712100D03*
X129705100Y-109912100D03*
X129705100Y-109112100D03*
X129705100Y-108312100D03*
X129705100Y-107512100D03*
X129705100Y-106712100D03*
X129705100Y-105912100D03*
X129705100Y-105112100D03*
D21*
X128212500Y-103619500D03*
X127412500Y-103619500D03*
X126612500Y-103619500D03*
X125812500Y-103619500D03*
X125012500Y-103619500D03*
X124212500Y-103619500D03*
X123412500Y-103619500D03*
X122612500Y-103619500D03*
%TD*%
%TO.C,R31*%
G36*
G01*
X115439600Y-86141500D02*
X115439600Y-85666500D01*
G75*
G02*
X115677100Y-85429000I237500J0D01*
G01*
X116177100Y-85429000D01*
G75*
G02*
X116414600Y-85666500I0J-237500D01*
G01*
X116414600Y-86141500D01*
G75*
G02*
X116177100Y-86379000I-237500J0D01*
G01*
X115677100Y-86379000D01*
G75*
G02*
X115439600Y-86141500I0J237500D01*
G01*
G37*
G36*
G01*
X117264600Y-86141500D02*
X117264600Y-85666500D01*
G75*
G02*
X117502100Y-85429000I237500J0D01*
G01*
X118002100Y-85429000D01*
G75*
G02*
X118239600Y-85666500I0J-237500D01*
G01*
X118239600Y-86141500D01*
G75*
G02*
X118002100Y-86379000I-237500J0D01*
G01*
X117502100Y-86379000D01*
G75*
G02*
X117264600Y-86141500I0J237500D01*
G01*
G37*
%TD*%
D22*
%TO.C,SD1*%
X113712400Y-130459400D03*
D23*
X113787400Y-126194400D03*
D24*
X101247401Y-127569400D03*
X101247401Y-123169399D03*
X101247401Y-122069398D03*
D25*
X101262400Y-132549400D03*
D26*
X112512400Y-132769400D03*
X112512400Y-119809400D03*
D27*
X101747400Y-119889400D03*
D24*
X101247401Y-126469400D03*
X101247401Y-120969400D03*
X101247401Y-128669400D03*
X101247401Y-124269399D03*
X101247401Y-125369399D03*
%TD*%
M02*
