%TF.GenerationSoftware,KiCad,Pcbnew,10.0.1*%
%TF.CreationDate,2026-06-09T12:07:19-04:00*%
%TF.ProjectId,MusselGapeTracker_RevI,4d757373-656c-4476-9170-65547261636b,rev?*%
%TF.SameCoordinates,Original*%
%TF.FileFunction,Soldermask,Bot*%
%TF.FilePolarity,Negative*%
%FSLAX46Y46*%
G04 Gerber Fmt 4.6, Leading zero omitted, Abs format (unit mm)*
G04 Created by KiCad (PCBNEW 10.0.1) date 2026-06-09 12:07:19*
%MOMM*%
%LPD*%
G01*
G04 APERTURE LIST*
G04 Aperture macros list*
%AMRoundRect*
0 Rectangle with rounded corners*
0 $1 Rounding radius*
0 $2 $3 $4 $5 $6 $7 $8 $9 X,Y pos of 4 corners*
0 Add a 4 corners polygon primitive as box body*
4,1,4,$2,$3,$4,$5,$6,$7,$8,$9,$2,$3,0*
0 Add four circle primitives for the rounded corners*
1,1,$1+$1,$2,$3*
1,1,$1+$1,$4,$5*
1,1,$1+$1,$6,$7*
1,1,$1+$1,$8,$9*
0 Add four rect primitives between the rounded corners*
20,1,$1+$1,$2,$3,$4,$5,0*
20,1,$1+$1,$4,$5,$6,$7,0*
20,1,$1+$1,$6,$7,$8,$9,0*
20,1,$1+$1,$8,$9,$2,$3,0*%
%AMFreePoly0*
4,1,25,0.338308,0.756873,0.343210,0.752382,0.752382,0.343210,0.774410,0.295969,0.774700,0.289328,0.774700,-0.289328,0.756873,-0.338308,0.752382,-0.343210,0.343210,-0.752382,0.295969,-0.774410,0.289328,-0.774700,-0.289328,-0.774700,-0.338308,-0.756873,-0.343210,-0.752382,-0.752382,-0.343210,-0.774410,-0.295969,-0.774700,-0.289328,-0.774700,0.289328,-0.756873,0.338308,-0.752382,0.343210,
-0.343210,0.752382,-0.295969,0.774410,-0.289328,0.774700,0.289328,0.774700,0.338308,0.756873,0.338308,0.756873,$1*%
%AMFreePoly1*
4,1,25,0.438258,0.998173,0.443160,0.993682,0.993682,0.443160,1.015710,0.395919,1.016000,0.389278,1.016000,-0.389278,0.998173,-0.438258,0.993682,-0.443160,0.443160,-0.993682,0.395919,-1.015710,0.389278,-1.016000,-0.389278,-1.016000,-0.438258,-0.998173,-0.443160,-0.993682,-0.993682,-0.443160,-1.015710,-0.395919,-1.016000,-0.389278,-1.016000,0.389278,-0.998173,0.438258,-0.993682,0.443160,
-0.443160,0.993682,-0.395919,1.015710,-0.389278,1.016000,0.389278,1.016000,0.438258,0.998173,0.438258,0.998173,$1*%
%AMFreePoly2*
4,1,25,0.343569,0.769573,0.348471,0.765082,0.765082,0.348471,0.787110,0.301230,0.787400,0.294589,0.787400,-0.294589,0.769573,-0.343569,0.765082,-0.348471,0.348471,-0.765082,0.301230,-0.787110,0.294589,-0.787400,-0.294589,-0.787400,-0.343569,-0.769573,-0.348471,-0.765082,-0.765082,-0.348471,-0.787110,-0.301230,-0.787400,-0.294589,-0.787400,0.294589,-0.769573,0.343569,-0.765082,0.348471,
-0.348471,0.765082,-0.301230,0.787110,-0.294589,0.787400,0.294589,0.787400,0.343569,0.769573,0.343569,0.769573,$1*%
%AMFreePoly3*
4,1,25,0.364611,0.820373,0.369513,0.815882,0.815882,0.369513,0.837910,0.322272,0.838200,0.315631,0.838200,-0.315631,0.820373,-0.364611,0.815882,-0.369513,0.369513,-0.815882,0.322272,-0.837910,0.315631,-0.838200,-0.315631,-0.838200,-0.364611,-0.820373,-0.369513,-0.815882,-0.815882,-0.369513,-0.837910,-0.322272,-0.838200,-0.315631,-0.838200,0.315631,-0.820373,0.364611,-0.815882,0.369513,
-0.369513,0.815882,-0.322272,0.837910,-0.315631,0.838200,0.315631,0.838200,0.364611,0.820373,0.364611,0.820373,$1*%
G04 Aperture macros list end*
%ADD10C,0.000000*%
%ADD11FreePoly0,0.000000*%
%ADD12C,3.403600*%
%ADD13C,1.574800*%
%ADD14FreePoly1,180.000000*%
%ADD15C,2.301600*%
%ADD16FreePoly2,90.000000*%
%ADD17FreePoly3,180.000000*%
%ADD18O,3.152400X1.652400*%
%ADD19C,4.724400*%
%ADD20RoundRect,0.076200X2.095500X2.095500X-2.095500X2.095500X-2.095500X-2.095500X2.095500X-2.095500X0*%
%ADD21RoundRect,0.076200X1.908000X1.908000X-1.908000X1.908000X-1.908000X-1.908000X1.908000X-1.908000X0*%
%ADD22RoundRect,0.076200X-0.317500X-0.635000X0.317500X-0.635000X0.317500X0.635000X-0.317500X0.635000X0*%
G04 APERTURE END LIST*
D10*
%TO.C,GROUND_CON0*%
G36*
X133928400Y-109913400D02*
G01*
X133420400Y-109913400D01*
X133420400Y-109405400D01*
X133928400Y-109405400D01*
X133928400Y-109913400D01*
G37*
%TD*%
D11*
%TO.C,U$3*%
X130365500Y-132677100D03*
%TD*%
D12*
%TO.C,STANDOFF2*%
X102679500Y-106134100D03*
%TD*%
D13*
%TO.C,HALL6*%
X155590500Y-100292100D03*
X153590500Y-100292100D03*
X151590500Y-100292100D03*
X149590500Y-100292100D03*
%TD*%
D11*
%TO.C,U$10*%
X132651500Y-104229100D03*
%TD*%
D13*
%TO.C,HALL9*%
X167782500Y-109817100D03*
X165782500Y-109817100D03*
X163782500Y-109817100D03*
X161782500Y-109817100D03*
%TD*%
%TO.C,HALL10*%
X155590500Y-116802100D03*
X153590500Y-116802100D03*
X151590500Y-116802100D03*
X149590500Y-116802100D03*
%TD*%
D14*
%TO.C,J1*%
X130517900Y-117513300D03*
X130517900Y-120053300D03*
X127977900Y-117513300D03*
X127977900Y-120053300D03*
X125437900Y-117513300D03*
X125437900Y-120053300D03*
%TD*%
D15*
%TO.C,STANDOFF5_M2*%
X112250000Y-88775000D03*
%TD*%
D11*
%TO.C,U$17*%
X130700000Y-88550000D03*
%TD*%
D13*
%TO.C,HALL11*%
X167782500Y-116802100D03*
X165782500Y-116802100D03*
X163782500Y-116802100D03*
X161782500Y-116802100D03*
%TD*%
%TO.C,HALL15*%
X167782500Y-130772100D03*
X165782500Y-130772100D03*
X163782500Y-130772100D03*
X161782500Y-130772100D03*
%TD*%
D11*
%TO.C,U$6*%
X99377500Y-108928100D03*
%TD*%
%TO.C,U$7*%
X99377500Y-111468100D03*
%TD*%
%TO.C,PB7*%
X119570500Y-132677100D03*
%TD*%
D16*
%TO.C,OLED0*%
X120310000Y-87496000D03*
X122850000Y-87750000D03*
X125390000Y-87496000D03*
X127930000Y-87750000D03*
%TD*%
D12*
%TO.C,STANDOFF3*%
X138620500Y-131407100D03*
%TD*%
D13*
%TO.C,HALL0*%
X155590500Y-79337100D03*
X153590500Y-79337100D03*
X151590500Y-79337100D03*
X149590500Y-79337100D03*
%TD*%
%TO.C,HALL12*%
X155590500Y-123787100D03*
X153590500Y-123787100D03*
X151590500Y-123787100D03*
X149590500Y-123787100D03*
%TD*%
D11*
%TO.C,U$8*%
X99377500Y-114008100D03*
%TD*%
D13*
%TO.C,HALL8*%
X155590500Y-109817100D03*
X153590500Y-109817100D03*
X151590500Y-109817100D03*
X149590500Y-109817100D03*
%TD*%
%TO.C,HALL2*%
X155590500Y-86322100D03*
X153590500Y-86322100D03*
X151590500Y-86322100D03*
X149590500Y-86322100D03*
%TD*%
D17*
%TO.C,JP1*%
X105727500Y-102070100D03*
X105727500Y-99530100D03*
X105727500Y-96990100D03*
X105727500Y-94450100D03*
X105727500Y-91910100D03*
X105727500Y-89370100D03*
%TD*%
D11*
%TO.C,U$9*%
X99377500Y-116548100D03*
%TD*%
%TO.C,U$4*%
X125285500Y-132677100D03*
%TD*%
D15*
%TO.C,STANDOFF4_M2*%
X112275000Y-112550000D03*
%TD*%
D18*
%TO.C,MOLEX_KK0*%
X124175000Y-80295000D03*
X124175000Y-77755000D03*
%TD*%
D13*
%TO.C,HALL7*%
X167782500Y-100292100D03*
X165782500Y-100292100D03*
X163782500Y-100292100D03*
X161782500Y-100292100D03*
%TD*%
%TO.C,HALL13*%
X167782500Y-123787100D03*
X165782500Y-123787100D03*
X163782500Y-123787100D03*
X161782500Y-123787100D03*
%TD*%
D12*
%TO.C,STANDOFF1*%
X144012400Y-91809400D03*
%TD*%
D13*
%TO.C,HALL4*%
X155590500Y-93307100D03*
X153590500Y-93307100D03*
X151590500Y-93307100D03*
X149590500Y-93307100D03*
%TD*%
D11*
%TO.C,GND0*%
X117030500Y-132677100D03*
%TD*%
D13*
%TO.C,HALL1*%
X167782500Y-79337100D03*
X165782500Y-79337100D03*
X163782500Y-79337100D03*
X161782500Y-79337100D03*
%TD*%
D11*
%TO.C,U$11*%
X145224500Y-131915100D03*
%TD*%
D13*
%TO.C,HALL14*%
X155590500Y-130772100D03*
X153590500Y-130772100D03*
X151590500Y-130772100D03*
X149590500Y-130772100D03*
%TD*%
D19*
%TO.C,UNK2\u002C1MM_JACK0*%
X106870500Y-80607100D03*
D20*
X100774500Y-80607100D03*
D21*
X103822500Y-85433100D03*
%TD*%
D13*
%TO.C,HALL3*%
X167782500Y-86322100D03*
X165782500Y-86322100D03*
X163782500Y-86322100D03*
X161782500Y-86322100D03*
%TD*%
%TO.C,HALL5*%
X167782500Y-93307100D03*
X165782500Y-93307100D03*
X163782500Y-93307100D03*
X161782500Y-93307100D03*
%TD*%
D22*
%TO.C,GROUND_CON0*%
X133166400Y-109659400D03*
X134182400Y-109659400D03*
%TD*%
M02*
